<svg width="23" height="28" viewBox="0 0 23 28" fill="none" xmlns="http://www.w3.org/2000/svg">
  <path fill-rule="evenodd" clip-rule="evenodd" d="M15.6693 4.51016C14.7169 5.66016 13.1177 6.52266 11.8419 6.52266C11.6982 6.52266 11.5544 6.50469 11.4646 6.48672C11.4466 6.41484 11.4107 6.19922 11.4107 5.98359C11.4107 4.51016 12.1474 3.07266 12.956 2.15625C13.9802 0.952344 15.6872 0.0539063 17.1068 0C17.1427 0.161719 17.1607 0.359375 17.1607 0.557031C17.1607 2.0125 16.5318 3.46797 15.6693 4.51016ZM9.41976 27.4237C8.77942 27.6988 8.17259 27.9594 7.34922 27.9594C5.58828 27.9594 4.36641 26.3422 2.96484 24.3657C1.32969 22.0297 0 18.418 0 15.0039C0 9.50551 3.57578 6.59457 7.09766 6.59457C8.12559 6.59457 9.06484 6.97149 9.90001 7.30664C10.5685 7.57493 11.1704 7.81645 11.6977 7.81645C12.155 7.81645 12.7249 7.59122 13.3892 7.32872C14.317 6.96207 15.4289 6.5227 16.675 6.5227C17.4656 6.5227 20.3586 6.59457 22.2633 9.32582C22.2524 9.33432 22.2291 9.34968 22.1952 9.37208C21.7265 9.68146 19.2266 11.3318 19.2266 14.7164C19.2266 18.9032 22.8742 20.3946 23 20.4305C22.9968 20.4386 22.9893 20.4616 22.9775 20.4982C22.8576 20.8693 22.286 22.6385 21.0594 24.4375C19.8555 26.1625 18.5797 27.9235 16.675 27.9235C15.7362 27.9235 15.138 27.6586 14.5204 27.385C13.8613 27.0932 13.1801 26.7914 12.0391 26.7914C10.8919 26.7914 10.1349 27.1166 9.41976 27.4237Z" fill="white"/>
</svg>
