<svg width="106" height="66" viewBox="0 0 106 66" fill="none" xmlns="http://www.w3.org/2000/svg">
    <path d="M0.830195 2.40125C1.1602 2.40125 1.7002 2.55125 2.0302 2.70125C2.5702 3.00125 2.6002 3.39125 2.6002 9.15125C2.6002 14.9112 2.5702 15.3012 2.0302 15.6012C1.7002 15.7512 1.1602 15.9012 0.830195 15.9012C0.320195 15.9012 0.200195 16.0812 0.200195 16.9512V18.0012H4.1002H8.0002V16.9512C8.0002 16.0212 7.91019 15.9012 7.2502 15.9012C6.8302 15.9012 6.23019 15.6312 5.90019 15.3012C5.36019 14.7612 5.3002 14.3112 5.3002 9.69125C5.3002 6.93125 5.4202 4.80125 5.5402 4.95125C5.6902 5.13125 6.8002 8.13125 8.0002 11.6412L10.2202 18.0312L11.2402 17.9412L12.2602 17.8512L14.7202 11.3112L17.1502 4.77125L17.2402 9.96125C17.3302 15.6612 17.2402 15.9012 15.4402 15.9012C14.6902 15.9012 14.6002 15.9912 14.6002 16.9512V18.0012H19.2502H23.9002V16.9512C23.9002 15.9612 23.8402 15.9012 22.9102 15.9012C22.3702 15.9012 21.7702 15.7512 21.5602 15.5412C21.2902 15.2712 21.2002 13.4712 21.2002 9.27125C21.2002 2.85125 21.2002 2.88125 22.9402 2.52125C23.7502 2.34125 23.9002 2.19125 23.9002 1.44125V0.571247L19.8202 0.661247L15.7402 0.751247L13.9402 5.70125C12.9502 8.43125 12.0502 10.7412 11.9302 10.8612C11.8402 10.9812 10.9402 8.73125 9.95019 5.85125L8.15019 0.601247H4.1902H0.200195V1.50125C0.200195 2.22125 0.320195 2.40125 0.830195 2.40125Z" fill="white"/>
    <path fill-rule="evenodd" clip-rule="evenodd" d="M64.3705 2.40151C64.8805 2.40151 65.3005 2.58151 65.4205 2.88151C65.5105 3.15151 65.6005 6.66151 65.6005 10.6815V18.0015H66.4705C67.0105 18.0015 67.4905 17.7615 67.7605 17.3415L68.1805 16.7115L69.1705 17.4315C70.5505 18.4515 73.7005 18.4815 75.1405 17.4615C76.7905 16.2615 77.4505 14.6415 77.4505 11.7015C77.4505 8.46151 76.6705 6.81151 74.6005 5.76151C72.8905 4.92151 72.0205 4.92151 70.2805 5.85151L68.9005 6.57151V3.60151V0.601509H66.2005H63.5005V1.50151C63.5005 2.28151 63.5905 2.40151 64.3705 2.40151ZM73.5805 14.2515C72.6505 16.4415 70.5205 16.6815 69.3805 14.7315C68.3005 12.9015 68.8405 8.25151 70.1605 7.68151C70.3705 7.62151 71.0305 7.56151 71.6005 7.59151C72.4105 7.65151 72.7705 7.86151 73.3105 8.67151C74.1205 9.87151 74.2705 12.6015 73.5805 14.2515Z" fill="white"/>
    <path fill-rule="evenodd" clip-rule="evenodd" d="M25.3999 11.7594C25.3999 14.9994 26.8399 17.0994 29.5699 17.9094C32.6299 18.7794 35.3299 17.8494 36.4699 15.4794C37.3399 13.7094 37.2799 13.4994 35.8999 13.4994C35.0599 13.4994 34.6999 13.6194 34.6999 13.9194C34.6999 14.1594 34.3999 14.7294 34.0099 15.1494C33.1399 16.1694 31.4599 16.2894 30.2899 15.4194C29.4499 14.7894 28.5499 12.7794 28.8799 12.2694C28.9699 12.1194 30.8599 11.9994 33.0799 11.9994C37.6399 11.9994 37.4299 12.1494 36.7699 9.38939C36.3199 7.64939 34.6699 5.87939 33.0499 5.42939C31.6399 5.03939 31.0099 5.03939 29.5999 5.45939C27.0799 6.17939 25.3999 8.69939 25.3999 11.7594ZM33.4999 9.29939V10.2294L31.3399 10.1394L29.1499 10.0494L29.2099 9.14939C29.3299 7.40939 31.6399 6.53939 32.8999 7.79939C33.2299 8.12939 33.4999 8.78939 33.4999 9.29939Z" fill="white"/>
    <path d="M45.4399 6.51L44.5999 7.32V6.36V5.4H41.7499H38.8999V6.3C38.8999 7.02 39.0199 7.2 39.5299 7.2C39.8599 7.2 40.3999 7.35 40.7299 7.5C41.2399 7.8 41.2999 8.16 41.2999 11.67C41.2999 15.84 41.2699 15.9 39.6199 15.9C38.9899 15.9 38.8999 16.05 38.8999 16.95V18H42.6499H46.3999V16.95C46.3999 16.14 46.2799 15.9 45.8599 15.9C44.8399 15.9 44.5999 15.27 44.5999 12.42C44.5999 10.08 44.6899 9.54 45.2899 8.67C45.8899 7.77 46.1299 7.65 47.2999 7.65C49.0699 7.65 49.3999 8.28 49.3999 11.94C49.3999 15.09 49.1299 15.9 48.0199 15.9C47.3599 15.9 47.2699 16.02 47.3599 16.86L47.4499 17.85H50.7499H54.0499L54.1399 16.86C54.2299 16.08 54.1399 15.9 53.6899 15.9C52.6399 15.9 52.3999 15.27 52.3999 12.6C52.3999 9.66 52.9399 8.19 54.2899 7.56C55.4899 6.96 56.4799 7.32 56.8699 8.43C57.3199 9.75 57.2899 15.09 56.8399 15.54C56.6299 15.75 56.2399 15.9 55.9399 15.9C55.5199 15.9 55.3999 16.14 55.3999 16.95V18H58.9999H62.5999V16.95C62.5999 15.96 62.5399 15.9 61.5499 15.9C60.2599 15.9 60.2299 15.81 60.1399 10.74C60.0499 7.2 59.9899 6.9 59.3299 6.18C57.9499 4.71 55.2499 4.86 53.2999 6.51L52.3699 7.29L51.9199 6.63C50.9599 5.28 48.7699 4.74 46.9999 5.43C46.5799 5.61 45.8899 6.09 45.4399 6.51Z" fill="white"/>
    <path fill-rule="evenodd" clip-rule="evenodd" d="M80.06 11.2517C79.88 13.9817 80.3 15.2717 81.8 16.6217C84.35 18.9017 88.19 18.8417 90.35 16.4417C90.92 15.8117 91.4 15.1217 91.4 14.8817C91.4 14.6417 91.49 14.2517 91.58 13.9817C91.73 13.5917 91.55 13.5017 90.59 13.5017C89.57 13.5017 89.39 13.6217 89.09 14.4017C88.88 15.0017 88.37 15.4517 87.71 15.7517C86.03 16.4417 84.5 15.7517 83.72 13.8917C82.91 11.9717 82.85 12.0017 87.53 12.0017H91.79L91.61 10.6517C91.04 6.63174 88.1 4.47174 84.32 5.40174C81.77 6.00174 80.27 8.07174 80.06 11.2517ZM88.1 9.30175V10.2017H85.85C83.69 10.2017 83.6 10.1717 83.6 9.48175C83.6 9.09175 83.87 8.43175 84.23 7.98174C85.01 6.99174 86.6 6.90174 87.5 7.80175C87.83 8.13175 88.1 8.79175 88.1 9.30175Z" fill="white"/>
    <path d="M99.8005 6.45C99.3805 6.96 99.3505 6.93 99.2005 6.27C99.0205 5.58 98.9005 5.55 96.2605 5.46L93.5005 5.37V6.3C93.5005 7.02 93.6205 7.2 94.1305 7.2C94.4605 7.2 95.0005 7.35 95.3305 7.5C95.8405 7.8 95.9005 8.16 95.9005 11.67C95.9005 15.84 95.8705 15.9 94.2205 15.9C93.5905 15.9 93.5005 16.05 93.5005 16.95V18H97.5505H101.6V16.95C101.6 15.99 101.51 15.9 100.76 15.9C99.4105 15.9 99.2005 15.42 99.2005 12.57C99.2005 8.73 100.13 6.87 102.02 6.93C102.53 6.93 102.77 7.02 102.56 7.11C101.81 7.41 101.54 8.7 102.05 9.51C102.74 10.53 104.54 10.38 105.17 9.27C105.83 8.07 105.38 6.42 104.21 5.7C103.1 5.01 102.41 4.98 101.15 5.52C100.64 5.73 100.04 6.15 99.8005 6.45Z" fill="white"/>
    <path d="M75.5902 39.2984C74.9002 41.9684 74.9002 47.4584 75.6202 50.0984C77.1502 55.6484 80.9002 60.3284 86.0002 62.9684C89.3902 64.7384 92.2402 65.3984 96.4702 65.3984C100.4 65.3684 101.9 65.1284 104.18 63.9884L105.8 63.2084V57.7184V52.2284L103.19 53.4884C100.79 54.6284 100.34 54.7484 97.7002 54.8384C95.3302 54.9284 94.5502 54.8384 93.1402 54.2984C90.7402 53.3984 88.4302 51.2384 87.3202 48.8384C86.5402 47.1584 86.4502 46.6184 86.4502 44.0984C86.4502 41.6684 86.5702 41.0084 87.2602 39.5384C88.8502 36.0884 91.7302 33.8984 95.4802 33.2684C98.1202 32.8184 100.04 33.2084 103.37 34.7984L105.8 35.9684L105.74 30.5384L105.65 25.0784L103.4 24.3584C101.72 23.8184 100.28 23.6384 97.7002 23.5484C95.8102 23.4884 93.8602 23.5184 93.3502 23.5784C84.6202 24.9884 77.7502 31.0484 75.5902 39.2984Z" fill="white"/>
    <path d="M0.500488 65.3984H6.20049H11.9005V57.4484V49.4984H17.3005H22.7005V44.8484V40.1984H17.3005H11.9005V36.8984V33.5984H17.7505H23.6005V28.9484V24.2984H12.0505H0.500488V44.8484V65.3984Z" fill="white"/>
    <path fill-rule="evenodd" clip-rule="evenodd" d="M25.3999 65.4595L33.8899 65.3095C40.7899 65.1895 42.8599 65.0395 45.0499 64.5595C53.2999 62.7595 58.3999 58.2295 60.3799 50.9995C61.1299 48.2995 61.1299 41.4295 60.4099 38.6995C58.6099 31.9195 53.7199 26.9995 46.8499 24.9895C45.3499 24.5695 43.4299 24.4495 35.2399 24.3595L25.3999 24.2695V44.8795V65.4595ZM49.6999 44.5495C49.6999 49.2595 47.6899 52.7695 44.0599 54.3895C42.1399 55.2595 39.7999 55.7995 37.9699 55.7995H36.7999V44.6695V33.5095L39.4399 33.6595C41.4799 33.7795 42.5299 34.0195 43.9699 34.6495C47.6899 36.3295 49.6999 39.8095 49.6999 44.5495Z" fill="white"/>
    <path d="M62.3 65.3984H68.0001H73.7001V44.8484V24.2984H68.0001H62.3V44.8484V65.3984Z" fill="white"/>
</svg>
