<svg width="80" height="80" viewBox="0 0 80 80" fill="none" xmlns="http://www.w3.org/2000/svg">
    <mask id="mask0_2404_3680" style="mask-type:alpha" maskUnits="userSpaceOnUse" x="0" y="0" width="80" height="80">
        <rect width="80" height="80" fill="white"/>
    </mask>
    <g mask="url(#mask0_2404_3680)">
        <path d="M7.20068 16.5311C7.65624 33.6663 14.5011 66.5949 39.1206 75.8416C39.683 76.0528 40.3167 76.0528 40.879 75.8416C65.4985 66.5949 72.3434 33.6663 72.799 16.5311C72.8281 15.4351 72.1076 14.4659 71.0433 14.1143L40.8407 4.13514C40.2953 3.95495 39.7043 3.95495 39.159 4.13514L8.95636 14.1143C7.89201 14.4659 7.17154 15.4351 7.20068 16.5311Z" fill="white"/>
        <path d="M28.7996 41.2682L37.4636 48.9258C37.8833 49.2968 38.5259 49.2507 38.8883 48.8236L55.1996 29.6016" stroke="#241E35" stroke-width="10" stroke-linecap="round"/>
    </g>
</svg>
