<svg width="120" height="120" viewBox="0 0 120 120" fill="none" xmlns="http://www.w3.org/2000/svg">
    <mask id="mask0_2404_3684" style="mask-type:alpha" maskUnits="userSpaceOnUse" x="0" y="0" width="120" height="120">
        <rect width="120" height="120" fill="white"/>
    </mask>
    <g mask="url(#mask0_2404_3684)">
        <path d="M7.8302 29.4012C8.1602 29.4012 8.7002 29.5512 9.0302 29.7012C9.5702 30.0012 9.6002 30.3912 9.6002 36.1512C9.6002 41.9112 9.5702 42.3012 9.0302 42.6012C8.7002 42.7512 8.1602 42.9012 7.8302 42.9012C7.3202 42.9012 7.2002 43.0812 7.2002 43.9512V45.0012H11.1002H15.0002V43.9512C15.0002 43.0212 14.9102 42.9012 14.2502 42.9012C13.8302 42.9012 13.2302 42.6312 12.9002 42.3012C12.3602 41.7612 12.3002 41.3112 12.3002 36.6912C12.3002 33.9312 12.4202 31.8012 12.5402 31.9512C12.6902 32.1312 13.8002 35.1312 15.0002 38.6412L17.2202 45.0312L18.2402 44.9412L19.2602 44.8512L21.7202 38.3112L24.1502 31.7712L24.2402 36.9612C24.3302 42.6612 24.2402 42.9012 22.4402 42.9012C21.6902 42.9012 21.6002 42.9912 21.6002 43.9512V45.0012H26.2502H30.9002V43.9512C30.9002 42.9612 30.8402 42.9012 29.9102 42.9012C29.3702 42.9012 28.7702 42.7512 28.5602 42.5412C28.2902 42.2712 28.2002 40.4712 28.2002 36.2712C28.2002 29.8512 28.2002 29.8812 29.9402 29.5212C30.7502 29.3412 30.9002 29.1912 30.9002 28.4412V27.5712L26.8202 27.6612L22.7402 27.7512L20.9402 32.7012C19.9502 35.4312 19.0502 37.7412 18.9302 37.8612C18.8402 37.9812 17.9402 35.7312 16.9502 32.8512L15.1502 27.6012H11.1902H7.2002V28.5012C7.2002 29.2212 7.3202 29.4012 7.8302 29.4012Z" fill="white"/>
        <path fill-rule="evenodd" clip-rule="evenodd" d="M71.3705 29.4016C71.8805 29.4016 72.3005 29.5816 72.4205 29.8816C72.5105 30.1516 72.6005 33.6616 72.6005 37.6816V45.0016H73.4705C74.0105 45.0016 74.4905 44.7616 74.7605 44.3416L75.1805 43.7116L76.1705 44.4316C77.5505 45.4516 80.7005 45.4816 82.1405 44.4616C83.7905 43.2616 84.4505 41.6416 84.4505 38.7016C84.4505 35.4616 83.6705 33.8116 81.6005 32.7616C79.8905 31.9216 79.0205 31.9216 77.2805 32.8516L75.9005 33.5716V30.6016V27.6016H73.2005H70.5005V28.5016C70.5005 29.2816 70.5905 29.4016 71.3705 29.4016ZM80.5805 41.2516C79.6505 43.4416 77.5205 43.6816 76.3805 41.7316C75.3005 39.9016 75.8405 35.2516 77.1605 34.6816C77.3705 34.6216 78.0305 34.5616 78.6005 34.5916C79.4105 34.6516 79.7705 34.8616 80.3105 35.6716C81.1205 36.8716 81.2705 39.6016 80.5805 41.2516Z" fill="white"/>
        <path fill-rule="evenodd" clip-rule="evenodd" d="M32.3999 38.7595C32.3999 41.9995 33.8399 44.0995 36.5699 44.9095C39.6299 45.7795 42.3299 44.8495 43.4699 42.4795C44.3399 40.7095 44.2799 40.4995 42.8999 40.4995C42.0599 40.4995 41.6999 40.6195 41.6999 40.9195C41.6999 41.1595 41.3999 41.7295 41.0099 42.1495C40.1399 43.1695 38.4599 43.2895 37.2899 42.4195C36.4499 41.7895 35.5499 39.7795 35.8799 39.2695C35.9699 39.1195 37.8599 38.9995 40.0799 38.9995C44.6399 38.9995 44.4299 39.1495 43.7699 36.3895C43.3199 34.6495 41.6699 32.8795 40.0499 32.4295C38.6399 32.0395 38.0099 32.0395 36.5999 32.4595C34.0799 33.1795 32.3999 35.6995 32.3999 38.7595ZM40.4999 36.2995V37.2295L38.3399 37.1395L36.1499 37.0495L36.2099 36.1495C36.3299 34.4095 38.6399 33.5395 39.8999 34.7995C40.2299 35.1295 40.4999 35.7895 40.4999 36.2995Z" fill="white"/>
        <path d="M52.4399 33.51L51.5999 34.32V33.36V32.4H48.7499H45.8999V33.3C45.8999 34.02 46.0199 34.2 46.5299 34.2C46.8599 34.2 47.3999 34.35 47.7299 34.5C48.2399 34.8 48.2999 35.16 48.2999 38.67C48.2999 42.84 48.2699 42.9 46.6199 42.9C45.9899 42.9 45.8999 43.05 45.8999 43.95V45H49.6499H53.3999V43.95C53.3999 43.14 53.2799 42.9 52.8599 42.9C51.8399 42.9 51.5999 42.27 51.5999 39.42C51.5999 37.08 51.6899 36.54 52.2899 35.67C52.8899 34.77 53.1299 34.65 54.2999 34.65C56.0699 34.65 56.3999 35.28 56.3999 38.94C56.3999 42.09 56.1299 42.9 55.0199 42.9C54.3599 42.9 54.2699 43.02 54.3599 43.86L54.4499 44.85H57.7499H61.0499L61.1399 43.86C61.2299 43.08 61.1399 42.9 60.6899 42.9C59.6399 42.9 59.3999 42.27 59.3999 39.6C59.3999 36.66 59.9399 35.19 61.2899 34.56C62.4899 33.96 63.4799 34.32 63.8699 35.43C64.3199 36.75 64.2899 42.09 63.8399 42.54C63.6299 42.75 63.2399 42.9 62.9399 42.9C62.5199 42.9 62.3999 43.14 62.3999 43.95V45H65.9999H69.5999V43.95C69.5999 42.96 69.5399 42.9 68.5499 42.9C67.2599 42.9 67.2299 42.81 67.1399 37.74C67.0499 34.2 66.9899 33.9 66.3299 33.18C64.9499 31.71 62.2499 31.86 60.2999 33.51L59.3699 34.29L58.9199 33.63C57.9599 32.28 55.7699 31.74 53.9999 32.43C53.5799 32.61 52.8899 33.09 52.4399 33.51Z" fill="white"/>
        <path fill-rule="evenodd" clip-rule="evenodd" d="M87.06 38.2518C86.88 40.9818 87.3 42.2718 88.8 43.6218C91.35 45.9018 95.19 45.8418 97.35 43.4418C97.92 42.8118 98.4 42.1218 98.4 41.8818C98.4 41.6418 98.49 41.2518 98.58 40.9818C98.73 40.5918 98.55 40.5018 97.59 40.5018C96.57 40.5018 96.39 40.6218 96.09 41.4018C95.88 42.0018 95.37 42.4518 94.71 42.7518C93.03 43.4418 91.5 42.7518 90.72 40.8918C89.91 38.9718 89.85 39.0018 94.53 39.0018H98.79L98.61 37.6518C98.04 33.6318 95.1 31.4718 91.32 32.4018C88.77 33.0018 87.27 35.0718 87.06 38.2518ZM95.1 36.3018V37.2018H92.85C90.69 37.2018 90.6 37.1718 90.6 36.4818C90.6 36.0918 90.87 35.4318 91.23 34.9818C92.01 33.9918 93.6 33.9018 94.5 34.8018C94.83 35.1318 95.1 35.7918 95.1 36.3018Z" fill="white"/>
        <path d="M106.8 33.45C106.38 33.96 106.35 33.93 106.2 33.27C106.02 32.58 105.9 32.55 103.26 32.46L100.5 32.37V33.3C100.5 34.02 100.62 34.2 101.13 34.2C101.46 34.2 102 34.35 102.33 34.5C102.84 34.8 102.9 35.16 102.9 38.67C102.9 42.84 102.87 42.9 101.22 42.9C100.59 42.9 100.5 43.05 100.5 43.95V45H104.55H108.6V43.95C108.6 42.99 108.51 42.9 107.76 42.9C106.41 42.9 106.2 42.42 106.2 39.57C106.2 35.73 107.13 33.87 109.02 33.93C109.53 33.93 109.77 34.02 109.56 34.11C108.81 34.41 108.54 35.7 109.05 36.51C109.74 37.53 111.54 37.38 112.17 36.27C112.83 35.07 112.38 33.42 111.21 32.7C110.1 32.01 109.41 31.98 108.15 32.52C107.64 32.73 107.04 33.15 106.8 33.45Z" fill="white"/>
        <path d="M82.5902 66.2984C81.9002 68.9684 81.9002 74.4584 82.6202 77.0984C84.1502 82.6484 87.9002 87.3284 93.0002 89.9684C96.3902 91.7384 99.2402 92.3984 103.47 92.3984C107.4 92.3684 108.9 92.1284 111.18 90.9884L112.8 90.2084V84.7184V79.2284L110.19 80.4884C107.79 81.6284 107.34 81.7484 104.7 81.8384C102.33 81.9284 101.55 81.8384 100.14 81.2984C97.7402 80.3984 95.4302 78.2384 94.3202 75.8384C93.5402 74.1584 93.4502 73.6184 93.4502 71.0984C93.4502 68.6684 93.5702 68.0084 94.2602 66.5384C95.8502 63.0884 98.7302 60.8984 102.48 60.2684C105.12 59.8184 107.04 60.2084 110.37 61.7984L112.8 62.9684L112.74 57.5384L112.65 52.0784L110.4 51.3584C108.72 50.8184 107.28 50.6384 104.7 50.5484C102.81 50.4884 100.86 50.5184 100.35 50.5784C91.6202 51.9884 84.7502 58.0484 82.5902 66.2984Z" fill="white"/>
        <path d="M7.50049 92.3984H13.2005H18.9005V84.4484V76.4984H24.3005H29.7005V71.8484V67.1984H24.3005H18.9005V63.8984V60.5984H24.7505H30.6005V55.9484V51.2984H19.0505H7.50049V71.8484V92.3984Z" fill="white"/>
        <path fill-rule="evenodd" clip-rule="evenodd" d="M32.3999 92.4595L40.8899 92.3095C47.7899 92.1895 49.8599 92.0395 52.0499 91.5595C60.2999 89.7595 65.3999 85.2295 67.3799 77.9995C68.1299 75.2995 68.1299 68.4295 67.4099 65.6995C65.6099 58.9195 60.7199 53.9995 53.8499 51.9895C52.3499 51.5695 50.4299 51.4495 42.2399 51.3595L32.3999 51.2695V71.8795V92.4595ZM56.6999 71.5495C56.6999 76.2595 54.6899 79.7695 51.0599 81.3895C49.1399 82.2595 46.7999 82.7995 44.9699 82.7995H43.7999V71.6695V60.5095L46.4399 60.6595C48.4799 60.7795 49.5299 61.0195 50.9699 61.6495C54.6899 63.3295 56.6999 66.8095 56.6999 71.5495Z" fill="white"/>
        <path d="M69.3 92.3984H75.0001H80.7001V71.8484V51.2984H75.0001H69.3V71.8484V92.3984Z" fill="white"/>
    </g>
</svg>
