<svg width="192" height="56" fill="none" xmlns="http://www.w3.org/2000/svg"><rect width="192" height="56" rx="10" fill="#151515"/><path d="M47.4 27.329c-.036-3.88 3.258-5.767 3.408-5.855-1.865-2.65-4.756-3.013-5.772-3.042-2.428-.25-4.783 1.417-6.02 1.417-1.262 0-3.166-1.393-5.22-1.352-2.641.04-5.112 1.53-6.468 3.846-2.797 4.722-.71 11.66 1.97 15.477 1.34 1.869 2.906 3.956 4.957 3.883 2.005-.081 2.755-1.247 5.175-1.247 2.399 0 3.103 1.246 5.194 1.2 2.152-.034 3.508-1.878 4.801-3.764 1.55-2.142 2.172-4.252 2.197-4.36-.051-.017-4.181-1.554-4.222-6.203zM43.45 15.921c1.079-1.315 1.817-3.105 1.612-4.921-1.562.067-3.514 1.053-4.639 2.34-.995 1.133-1.884 2.992-1.654 4.74 1.754.127 3.555-.864 4.68-2.159zM76.43 41.43h-2.804l-1.536-4.705h-5.337L65.29 41.43h-2.73l5.289-16.017h3.266l5.314 16.017zm-4.803-6.678l-1.388-4.183c-.147-.427-.423-1.433-.829-3.017h-.05a114.29 114.29 0 01-.78 3.017l-1.363 4.183h4.41zM90.029 35.517c0 1.964-.545 3.516-1.633 4.656-.976 1.015-2.187 1.522-3.632 1.522-1.56 0-2.681-.547-3.364-1.64h-.05v6.084H78.72V33.686c0-1.235-.033-2.502-.097-3.802h2.314l.147 1.83h.05c.877-1.378 2.209-2.067 3.996-2.067 1.398 0 2.564.538 3.497 1.615.936 1.079 1.403 2.496 1.403 4.255zm-2.681.094c0-1.124-.26-2.051-.78-2.78-.57-.761-1.334-1.142-2.292-1.142-.649 0-1.24.212-1.766.63a2.91 2.91 0 00-1.036 1.652 3.28 3.28 0 00-.122.783v1.925c0 .84.264 1.55.792 2.128.529.58 1.215.868 2.06.868.99 0 1.762-.373 2.314-1.117.553-.745.83-1.727.83-2.947zM103.653 35.517c0 1.964-.544 3.516-1.634 4.656-.974 1.015-2.185 1.522-3.63 1.522-1.561 0-2.682-.547-3.363-1.64h-.05v6.084h-2.632V33.686c0-1.235-.033-2.502-.097-3.802h2.314l.147 1.83h.05c.876-1.378 2.208-2.067 3.997-2.067 1.396 0 2.562.538 3.498 1.615.932 1.079 1.4 2.496 1.4 4.255zm-2.681.094c0-1.124-.261-2.051-.782-2.78-.569-.761-1.33-1.142-2.29-1.142-.65 0-1.239.212-1.767.63a2.907 2.907 0 00-1.035 1.652c-.08.318-.122.578-.122.783v1.925c0 .84.264 1.55.79 2.128.529.578 1.215.868 2.062.868.99 0 1.763-.373 2.314-1.117.553-.745.83-1.727.83-2.947zM118.885 36.94c0 1.362-.485 2.47-1.459 3.326-1.07.935-2.56 1.402-4.474 1.402-1.768 0-3.185-.332-4.258-.997l.61-2.14a7.353 7.353 0 003.804 1.024c.992 0 1.763-.22 2.317-.655.552-.435.827-1.02.827-1.75 0-.65-.227-1.197-.682-1.641-.453-.445-1.21-.857-2.267-1.239-2.876-1.046-4.313-2.578-4.313-4.593 0-1.316.504-2.396 1.513-3.236 1.004-.841 2.345-1.261 4.021-1.261 1.495 0 2.737.254 3.728.76l-.658 2.092c-.926-.49-1.972-.736-3.144-.736-.926 0-1.649.222-2.167.665-.439.396-.658.879-.658 1.45 0 .633.25 1.157.754 1.569.438.38 1.234.791 2.39 1.236 1.413.554 2.451 1.203 3.119 1.947.665.741.997 1.67.997 2.777zM127.587 31.81h-2.901v5.607c0 1.426.511 2.139 1.536 2.139.47 0 .86-.04 1.169-.12l.072 1.95c-.518.188-1.201.283-2.046.283-1.04 0-1.852-.309-2.438-.926-.584-.619-.878-1.656-.878-3.114v-5.821h-1.728v-1.926h1.728v-2.115l2.585-.76v2.875h2.901v1.928zM140.675 35.563c0 1.775-.521 3.232-1.56 4.372-1.09 1.173-2.537 1.758-4.34 1.758-1.738 0-3.122-.562-4.154-1.686-1.032-1.124-1.548-2.543-1.548-4.253 0-1.79.531-3.256 1.596-4.395 1.063-1.142 2.497-1.712 4.301-1.712 1.738 0 3.137.562 4.192 1.687 1.01 1.092 1.513 2.501 1.513 4.229zm-2.73.082c0-1.065-.233-1.978-.706-2.74-.552-.922-1.341-1.382-2.363-1.382-1.058 0-1.861.461-2.413 1.382-.473.763-.706 1.691-.706 2.789 0 1.065.233 1.978.706 2.739.569.922 1.364 1.382 2.39 1.382 1.005 0 1.793-.47 2.362-1.406.485-.776.73-1.7.73-2.764zM149.23 32.14a4.7 4.7 0 00-.83-.07c-.926 0-1.642.34-2.145 1.023-.438.602-.658 1.362-.658 2.28v6.06h-2.631l.025-7.912a60.73 60.73 0 00-.099-3.636h2.293l.096 2.21h.073c.277-.76.716-1.37 1.315-1.83a3.239 3.239 0 011.903-.618c.243 0 .463.017.658.047v2.447zM161 35.111c0 .46-.031.848-.096 1.164h-7.896c.031 1.141.413 2.014 1.146 2.616.665.538 1.525.807 2.582.807 1.169 0 2.236-.182 3.195-.546l.412 1.781c-1.121.477-2.444.714-3.971.714-1.837 0-3.279-.527-4.328-1.58-1.047-1.054-1.571-2.468-1.571-4.242 0-1.741.487-3.192 1.464-4.348 1.022-1.235 2.403-1.853 4.141-1.853 1.707 0 3 .618 3.877 1.853.695.98 1.045 2.194 1.045 3.634zm-2.51-.665c.018-.76-.154-1.418-.511-1.973-.455-.713-1.155-1.07-2.097-1.07-.86 0-1.56.348-2.095 1.046-.438.555-.699 1.22-.779 1.996h5.482zM70.757 15.567c0 1.417-.436 2.483-1.306 3.2-.806.66-1.952.991-3.435.991-.736 0-1.366-.031-1.893-.094v-7.74a14.318 14.318 0 012.228-.163c1.414 0 2.48.3 3.198.899.804.677 1.208 1.646 1.208 2.907zm-1.364.035c0-.918-.25-1.622-.748-2.113-.499-.49-1.227-.736-2.186-.736-.408 0-.754.027-1.042.082v5.884c.16.024.45.035.874.035.99 0 1.754-.268 2.292-.805.538-.537.81-1.319.81-2.347zM77.99 16.805c0 .873-.256 1.588-.767 2.149-.536.576-1.246.864-2.132.864-.854 0-1.534-.276-2.042-.83-.506-.552-.759-1.249-.759-2.089 0-.878.26-1.6.784-2.159.523-.56 1.227-.84 2.113-.84.854 0 1.54.276 2.06.828.494.537.742 1.23.742 2.077zm-1.343.041c0-.523-.116-.972-.346-1.347-.272-.452-.658-.678-1.16-.678-.52 0-.915.226-1.187.678-.232.375-.347.83-.347 1.37 0 .524.116.973.347 1.347.28.452.67.679 1.174.679.494 0 .881-.23 1.16-.691.24-.382.36-.834.36-1.358zM87.687 14.013l-1.821 5.673h-1.185l-.754-2.463a18.048 18.048 0 01-.468-1.833h-.024a13.146 13.146 0 01-.467 1.833l-.802 2.463h-1.198l-1.712-5.673h1.33l.657 2.697c.16.638.29 1.246.395 1.821h.024c.096-.474.255-1.078.48-1.809l.826-2.708h1.054l.791 2.65c.191.647.347 1.269.467 1.868h.035c.088-.583.22-1.206.395-1.868l.707-2.65h1.27v-.001zM94.394 19.689H93.1v-3.25c0-1.001-.39-1.502-1.173-1.502a1.18 1.18 0 00-.934.413c-.238.276-.36.6-.36.973v3.365H89.34v-4.051c0-.499-.016-1.04-.047-1.624h1.137l.06.887h.036c.15-.276.376-.503.67-.685.351-.212.744-.319 1.173-.319.543 0 .995.171 1.354.514.447.42.67 1.047.67 1.88v3.399zM97.96 19.687h-1.292V11.41h1.293v8.277zM105.577 16.805c0 .873-.255 1.588-.766 2.149-.536.576-1.247.864-2.132.864-.855 0-1.536-.276-2.042-.83-.506-.552-.759-1.249-.759-2.089 0-.878.261-1.6.784-2.159.523-.56 1.227-.84 2.112-.84.856 0 1.541.276 2.062.828.493.537.741 1.23.741 2.077zm-1.343.041c0-.523-.116-.972-.346-1.347-.271-.452-.658-.678-1.16-.678-.521 0-.916.226-1.186.678-.232.375-.347.83-.347 1.37 0 .524.116.973.347 1.347.28.452.67.679 1.174.679.494 0 .88-.23 1.159-.691.241-.382.359-.834.359-1.358zM111.838 19.689h-1.161l-.097-.654h-.035c-.398.522-.964.783-1.7.783-.55 0-.994-.172-1.328-.514a1.588 1.588 0 01-.456-1.155c0-.694.296-1.222.893-1.588.595-.366 1.431-.545 2.509-.537v-.106c0-.747-.402-1.12-1.208-1.12-.574 0-1.08.14-1.517.42l-.263-.828c.54-.326 1.208-.49 1.996-.49 1.52 0 2.283.782 2.283 2.347v2.09c0 .566.029 1.018.084 1.352zm-1.343-1.95v-.875c-1.427-.024-2.14.358-2.14 1.144 0 .296.081.517.248.665a.92.92 0 00.632.222c.284 0 .549-.088.791-.263a1.07 1.07 0 00.469-.893zM119.189 19.687h-1.148l-.06-.911h-.036c-.367.693-.991 1.04-1.869 1.04a2.213 2.213 0 01-1.748-.805c-.463-.537-.694-1.234-.694-2.09 0-.918.251-1.662.755-2.23a2.344 2.344 0 011.796-.794c.781 0 1.328.256 1.639.77h.025V11.41h1.294v6.748c0 .553.015 1.062.046 1.529zm-1.34-2.393v-.946c0-.163-.013-.296-.036-.397a1.433 1.433 0 00-.468-.764 1.292 1.292 0 00-.865-.31c-.483 0-.861.187-1.139.561-.275.375-.414.853-.414 1.436 0 .561.132 1.016.397 1.366.28.373.658.56 1.131.56.425 0 .764-.155 1.022-.467.249-.288.372-.634.372-1.039zM130.253 16.805c0 .873-.255 1.588-.766 2.149-.536.576-1.245.864-2.132.864-.853 0-1.533-.276-2.042-.83-.506-.552-.759-1.249-.759-2.089 0-.878.261-1.6.784-2.159.523-.56 1.227-.84 2.114-.84.853 0 1.541.276 2.059.828.494.537.742 1.23.742 2.077zm-1.34.041c0-.523-.116-.972-.347-1.347-.273-.452-.658-.678-1.162-.678-.518 0-.913.226-1.186.678-.232.375-.347.83-.347 1.37 0 .524.116.973.347 1.347.28.452.67.679 1.174.679.494 0 .883-.23 1.162-.691.238-.382.359-.834.359-1.358zM137.209 19.689h-1.292v-3.25c0-1.001-.39-1.502-1.174-1.502-.384 0-.694.138-.934.413-.239.276-.359.6-.359.973v3.365h-1.295v-4.051c0-.499-.014-1.04-.045-1.624h1.135l.061.887h.036c.151-.276.376-.503.67-.685a2.233 2.233 0 011.174-.319c.542 0 .994.171 1.353.514.448.42.67 1.047.67 1.88v3.399zM145.915 14.958h-1.424v2.756c0 .7.253 1.051.754 1.051.232 0 .425-.02.577-.059l.033.957c-.256.094-.591.14-1.005.14-.511 0-.908-.151-1.196-.454-.289-.303-.432-.814-.432-1.53v-2.86h-.851v-.946h.851v-1.04l1.268-.373v1.412h1.424v.946h.001zM152.764 19.687h-1.295v-3.226c0-1.016-.39-1.526-1.171-1.526-.6 0-1.01.295-1.235.885-.038.124-.06.276-.06.454v3.412h-1.293V11.41h1.293v3.42h.024c.408-.623.992-.933 1.748-.933.536 0 .979.17 1.331.514.438.427.658 1.062.658 1.902v3.374zM159.828 16.583c0 .227-.017.417-.048.572h-3.88c.018.561.203.988.562 1.284.328.265.752.398 1.27.398.574 0 1.098-.09 1.569-.269l.203.876c-.552.234-1.202.35-1.953.35-.901 0-1.611-.258-2.125-.776-.516-.517-.771-1.212-.771-2.083 0-.856.238-1.568.718-2.136.501-.607 1.179-.91 2.035-.91.836 0 1.472.303 1.902.91.347.481.518 1.077.518 1.784zm-1.234-.326a1.667 1.667 0 00-.251-.969c-.224-.35-.566-.526-1.029-.526a1.24 1.24 0 00-1.03.514 1.88 1.88 0 00-.384.981h2.694z" fill="#fff"/></svg>