<svg width="120" height="120" viewBox="0 0 120 120" fill="none" xmlns="http://www.w3.org/2000/svg">
    <path d="M89.4279 44.9432L85.8131 45.1497C85.8131 45.1497 81.1035 39.1188 71.0026 39.1188C60.9018 39.1188 54.3951 47.3804 53.7134 49.3838C48.4668 48.8674 42.7243 50.5611 42.7243 50.5611C42.7243 50.5611 37.9941 41.6592 30.6611 40.4613V36H89.4486V44.9432H89.4279Z" fill="white"/>
    <path d="M44.4603 63.8203C44.4603 63.8203 43.572 74.7463 30.5793 79.2488L30.4141 83.9993H89.4907V73.631L86.4336 73.5483C86.4336 73.5483 80.464 80.8599 70.611 80.4674C60.758 80.0544 54.3133 73.2179 51.0083 65.7618L44.4603 63.8203Z" fill="white"/>
    <path d="M34.6064 56.5297L35.4947 57.6451C35.4947 57.6451 47.5992 52.4196 58.8155 58.843C70.0318 65.2664 82.3842 61.9824 87.7135 57.8103L86.9079 56.2819C86.9079 56.2819 77.0549 61.8998 62.7815 54.6709C48.4874 47.442 36.3829 54.3611 34.6064 56.5297Z" fill="white"/>
    <path d="M30 62.7066L30.8882 63.8219C30.8882 63.8219 42.9927 58.5964 54.209 65.0198C65.4253 71.4432 77.7777 68.1592 83.107 63.9665L82.3014 62.4381C82.3014 62.4381 72.4484 68.056 58.1544 60.8271C43.8809 53.6395 31.7764 60.5379 30 62.7066Z" fill="white"/>
</svg>
