<svg width="60" height="48" viewBox="0 0 60 48" fill="none" xmlns="http://www.w3.org/2000/svg">
<path d="M59.4279 8.94318L55.8131 9.14972C55.8131 9.14972 51.1035 3.11875 41.0026 3.11875C30.9018 3.11875 24.3951 11.3804 23.7134 13.3838C18.4668 12.8674 12.7243 14.5611 12.7243 14.5611C12.7243 14.5611 7.99407 5.6592 0.661133 4.46126V0H59.4486V8.94318H59.4279Z" fill="white"/>
<path d="M14.4603 27.8203C14.4603 27.8203 13.572 38.7463 0.579312 43.2488L0.414062 47.9993H59.4907V37.631L56.4336 37.5483C56.4336 37.5483 50.464 44.8599 40.611 44.4674C30.758 44.0544 24.3133 37.2179 21.0083 29.7618L14.4603 27.8203Z" fill="white"/>
<path d="M4.60645 20.5297L5.49466 21.6451C5.49466 21.6451 17.5992 16.4196 28.8155 22.843C40.0318 29.2664 52.3842 25.9824 57.7135 21.8103L56.9079 20.2819C56.9079 20.2819 47.0549 25.8998 32.7815 18.6709C18.4874 11.442 6.38288 18.3611 4.60645 20.5297Z" fill="white"/>
<path d="M0 26.7066L0.888215 27.8219C0.888215 27.8219 12.9927 22.5964 24.209 29.0198C35.4253 35.4432 47.7777 32.1592 53.107 27.9665L52.3014 26.4381C52.3014 26.4381 42.4484 32.056 28.1544 24.8271C13.8809 17.6395 1.77643 24.5379 0 26.7066Z" fill="white"/>
</svg>
