<svg width="24" height="24" fill="none" xmlns="http://www.w3.org/2000/svg"><path opacity=".25" d="M12 2C8.14 2 5 5.002 5 8.691 5 13.166 12.01 22 12.01 22s2.119-2.77 3.712-5.349C17.898 13.132 19 10.454 19 8.691 19 5.001 15.86 2 12 2zm2.67 14.045a64.43 64.43 0 01-2.679 3.972 56.319 56.319 0 01-2.662-3.85c-2.028-3.23-3.1-5.814-3.1-7.476 0-3.042 2.59-5.516 5.772-5.516 3.182 0 5.77 2.475 5.77 5.516 0 1.065-.538 3.204-3.102 7.354z" fill="#fff"/><ellipse cx="12" cy="8.5" rx="4.696" ry="4.5" fill="#F0C13B"/><path d="M13.097 7l-1.493 1.62-.924-.583-.68.817L11.819 10 14 7.631 13.097 7z" fill="#545260"/></svg>