<svg width="24" height="24" fill="none" xmlns="http://www.w3.org/2000/svg"><g clip-path="url(#clip0_4411_7088)"><path d="M20.767 0H3.235A3.234 3.234 0 00.001 3.234v17.532A3.234 3.234 0 003.235 24h8.647l.014-8.576H9.668a.526.526 0 01-.525-.524l-.011-2.765a.526.526 0 01.526-.527h2.224V8.937c0-3.1 1.893-4.788 4.658-4.788h2.27c.29 0 .525.235.525.525v2.331c0 .29-.235.526-.525.526h-1.393c-1.504 0-1.795.715-1.795 1.764v2.313h3.305c.314 0 .559.275.521.587l-.327 2.765a.526.526 0 01-.522.464h-2.962L15.622 24h5.145A3.234 3.234 0 0024 20.766V3.234A3.234 3.234 0 0020.767 0z" fill="#fff"/></g><defs><clipPath id="clip0_4411_7088"><path fill="#fff" d="M0 0h24v24H0z"/></clipPath></defs></svg>