<svg width="44" height="28" fill="none" xmlns="http://www.w3.org/2000/svg"><path d="M.263 1.25c.137 0 .362.062.5.124C.987 1.5 1 1.662 1 4.062c0 2.4-.012 2.562-.238 2.687a1.47 1.47 0 01-.5.125C.05 6.874 0 6.95 0 7.312v.437h3.25v-.437c0-.388-.038-.438-.313-.438-.174 0-.424-.112-.562-.25-.225-.225-.25-.412-.25-2.337 0-1.15.05-2.038.1-1.975.063.075.525 1.325 1.025 2.787l.925 2.663.425-.038.425-.037L6.05 4.962l1.013-2.725.037 2.162c.038 2.375 0 2.475-.75 2.475-.313 0-.35.038-.35.438v.437h3.875v-.437c0-.413-.025-.438-.412-.438-.225 0-.475-.062-.563-.15-.113-.112-.15-.862-.15-2.612 0-2.675 0-2.663.725-2.813.338-.075.4-.137.4-.45V.487l-1.7.037-1.7.038-.75 2.062c-.412 1.138-.787 2.1-.837 2.15-.038.05-.413-.887-.825-2.087L3.313.499H0v.375c0 .3.05.375.263.375z" fill="#fff"/><path fill-rule="evenodd" clip-rule="evenodd" d="M26.738 1.25c.212 0 .387.075.437.2.037.113.075 1.575.075 3.25v3.05h.363c.224 0 .425-.1.537-.275l.175-.262.413.3c.575.425 1.887.437 2.487.012.688-.5.962-1.175.962-2.4 0-1.35-.324-2.038-1.187-2.475-.712-.35-1.075-.35-1.8.038l-.575.3V.5h-2.25v.375c0 .325.038.375.363.375zm3.837 4.938c-.387.912-1.275 1.012-1.75.2-.45-.763-.225-2.7.325-2.938.088-.025.363-.05.6-.038.337.026.488.113.712.45.338.5.4 1.638.113 2.325zM10.5 5.152c0 1.35.6 2.225 1.738 2.563 1.274.362 2.4-.025 2.875-1.013.362-.737.337-.825-.238-.825-.35 0-.5.05-.5.175 0 .1-.125.338-.287.513-.363.425-1.063.475-1.55.112-.35-.262-.726-1.1-.588-1.312.038-.063.825-.113 1.75-.113 1.9 0 1.813.063 1.538-1.087-.188-.725-.875-1.463-1.55-1.65-.588-.163-.85-.163-1.438.012-1.05.3-1.75 1.35-1.75 2.625zm3.375-1.025v.388l-.9-.038-.912-.037.024-.375c.05-.725 1.013-1.088 1.538-.563a1 1 0 01.25.625z" fill="#fff"/><path d="M18.85 2.962l-.35.338v-.8h-2.375v.375c0 .3.05.375.262.375.138 0 .363.063.5.125.213.125.238.275.238 1.737 0 1.738-.012 1.763-.7 1.763-.262 0-.3.063-.3.438v.437h3.125v-.438c0-.337-.05-.437-.225-.437-.425 0-.525-.263-.525-1.45 0-.975.038-1.2.288-1.563.25-.375.35-.425.837-.425.738 0 .875.263.875 1.788 0 1.313-.113 1.65-.575 1.65-.275 0-.313.05-.275.4l.038.412h2.75l.037-.412c.037-.325 0-.4-.188-.4-.437 0-.537-.263-.537-1.375 0-1.225.225-1.837.788-2.1.5-.25.912-.1 1.075.363.187.55.175 2.774-.013 2.962a.59.59 0 01-.375.15c-.175 0-.225.1-.225.438v.437h3v-.438c0-.412-.025-.437-.438-.437-.537 0-.55-.037-.587-2.15-.038-1.475-.063-1.6-.338-1.9-.575-.613-1.7-.55-2.512.137l-.387.325-.188-.274c-.4-.563-1.313-.788-2.05-.5a2.777 2.777 0 00-.65.45z" fill="#fff"/><path fill-rule="evenodd" clip-rule="evenodd" d="M33.275 4.94c-.075 1.138.1 1.676.725 2.238 1.063.95 2.663.925 3.563-.075.237-.262.437-.55.437-.65 0-.1.038-.262.075-.375.063-.162-.013-.2-.413-.2-.425 0-.5.05-.624.375-.088.25-.3.438-.575.563-.7.287-1.338 0-1.663-.775-.337-.8-.362-.788 1.588-.788h1.775l-.075-.562c-.238-1.675-1.463-2.575-3.038-2.188-1.063.25-1.688 1.113-1.775 2.438zm3.35-.812v.375h-.938c-.9 0-.937-.012-.937-.3 0-.162.112-.437.263-.625.325-.412.987-.45 1.362-.075a1 1 0 01.25.625z" fill="#fff"/><path d="M41.5 2.938c-.175.212-.188.2-.25-.076-.075-.287-.125-.3-1.225-.337l-1.15-.038v.388c0 .3.05.375.263.375.137 0 .362.063.5.125.212.125.237.275.237 1.737 0 1.738-.013 1.763-.7 1.763-.262 0-.3.063-.3.438v.437h3.375v-.438c0-.4-.038-.437-.35-.437-.563 0-.65-.2-.65-1.388 0-1.6.388-2.375 1.175-2.35.213 0 .313.038.225.075-.313.125-.425.663-.212 1 .287.426 1.037.363 1.3-.1.275-.5.087-1.187-.4-1.487-.463-.288-.75-.3-1.276-.075-.212.088-.462.263-.562.388zM31.412 16.625c-.287 1.113-.287 3.4.013 4.5a8.604 8.604 0 004.325 5.363c1.412.737 2.6 1.012 4.362 1.012 1.638-.012 2.263-.113 3.213-.587l.675-.326V22.012l-1.088.526c-1 .474-1.187.524-2.287.562-.988.037-1.313 0-1.9-.225-1-.375-1.963-1.275-2.425-2.275-.325-.7-.363-.925-.363-1.975 0-1.012.05-1.288.338-1.9.662-1.438 1.862-2.35 3.425-2.613 1.1-.187 1.9-.024 3.287.638l1.013.488-.025-2.263-.038-2.275-.937-.3c-.7-.225-1.3-.3-2.375-.338-.788-.024-1.6-.012-1.813.013-3.637.588-6.5 3.113-7.4 6.55zM.125 27.5h4.75v-6.625h4.5V17h-4.5v-2.75H9.75v-3.875H.125V27.5z" fill="#fff"/><path fill-rule="evenodd" clip-rule="evenodd" d="M10.5 27.526l3.537-.063c2.876-.05 3.738-.112 4.65-.312 3.438-.75 5.563-2.638 6.388-5.65.313-1.125.313-3.988.012-5.125-.75-2.825-2.787-4.875-5.65-5.713-.625-.175-1.425-.225-4.837-.262l-4.1-.038V27.526zm10.125-8.713c0 1.963-.837 3.425-2.35 4.1-.8.363-1.775.588-2.537.588h-.488v-9.288l1.1.063c.85.05 1.287.15 1.887.412 1.55.7 2.388 2.15 2.388 4.125z" fill="#fff"/><path d="M25.875 27.5h4.75V10.375h-4.75V27.5z" fill="#fff"/></svg>