<svg width="50" height="50" viewBox="0 0 50 50" fill="none" xmlns="http://www.w3.org/2000/svg">
  <mask id="mask0_2488_294" style="mask-type:alpha" maskUnits="userSpaceOnUse" x="0" y="0" width="50" height="50">
    <rect width="50" height="50" fill="white"/>
  </mask>
  <g mask="url(#mask0_2488_294)">
    <path d="M3.2625 12.2492C3.4 12.2492 3.625 12.3117 3.7625 12.3742C3.9875 12.4992 4 12.6617 4 15.0617C4 17.4617 3.9875 17.6242 3.7625 17.7492C3.625 17.8117 3.4 17.8742 3.2625 17.8742C3.05 17.8742 3 17.9492 3 18.3117V18.7492H4.625H6.25V18.3117C6.25 17.9242 6.2125 17.8742 5.9375 17.8742C5.7625 17.8742 5.5125 17.7617 5.375 17.6242C5.15 17.3992 5.125 17.2117 5.125 15.2867C5.125 14.1367 5.175 13.2492 5.225 13.3117C5.2875 13.3867 5.75 14.6367 6.25 16.0992L7.175 18.7617L7.6 18.7242L8.025 18.6867L9.05 15.9617L10.0625 13.2367L10.1 15.3992C10.1375 17.7742 10.1 17.8742 9.35 17.8742C9.0375 17.8742 9 17.9117 9 18.3117V18.7492H10.9375H12.875V18.3117C12.875 17.8992 12.85 17.8742 12.4625 17.8742C12.2375 17.8742 11.9875 17.8117 11.9 17.7242C11.7875 17.6117 11.75 16.8617 11.75 15.1117C11.75 12.4367 11.75 12.4492 12.475 12.2992C12.8125 12.2242 12.875 12.1617 12.875 11.8492V11.4867L11.175 11.5242L9.475 11.5617L8.725 13.6242C8.3125 14.7617 7.9375 15.7242 7.8875 15.7742C7.85 15.8242 7.475 14.8867 7.0625 13.6867L6.3125 11.4992H4.6625H3V11.8742C3 12.1742 3.05 12.2492 3.2625 12.2492Z" fill="white"/>
    <path fill-rule="evenodd" clip-rule="evenodd" d="M29.7375 12.25C29.95 12.25 30.125 12.325 30.175 12.45C30.2125 12.5625 30.25 14.025 30.25 15.7V18.75H30.6125C30.8375 18.75 31.0375 18.65 31.15 18.475L31.325 18.2125L31.7375 18.5125C32.3125 18.9375 33.625 18.95 34.225 18.525C34.9125 18.025 35.1875 17.35 35.1875 16.125C35.1875 14.775 34.8625 14.0875 34 13.65C33.2875 13.3 32.925 13.3 32.2 13.6875L31.625 13.9875V12.75V11.5H30.5H29.375V11.875C29.375 12.2 29.4125 12.25 29.7375 12.25ZM33.575 17.1875C33.1875 18.1 32.3 18.2 31.825 17.3875C31.375 16.625 31.6 14.6875 32.15 14.45C32.2375 14.425 32.5125 14.4 32.75 14.4125C33.0875 14.4375 33.2375 14.525 33.4625 14.8625C33.8 15.3625 33.8625 16.5 33.575 17.1875Z" fill="white"/>
    <path fill-rule="evenodd" clip-rule="evenodd" d="M13.5 16.1524C13.5 17.5024 14.1 18.3774 15.2375 18.7149C16.5125 19.0774 17.6375 18.6899 18.1125 17.7024C18.475 16.9649 18.45 16.8774 17.875 16.8774C17.525 16.8774 17.375 16.9274 17.375 17.0524C17.375 17.1524 17.25 17.3899 17.0875 17.5649C16.725 17.9899 16.025 18.0399 15.5375 17.6774C15.1875 17.4149 14.8125 16.5774 14.95 16.3649C14.9875 16.3024 15.775 16.2524 16.7 16.2524C18.6 16.2524 18.5125 16.3149 18.2375 15.1649C18.05 14.4399 17.3625 13.7024 16.6875 13.5149C16.1 13.3524 15.8375 13.3524 15.25 13.5274C14.2 13.8274 13.5 14.8774 13.5 16.1524ZM16.875 15.1274V15.5149L15.975 15.4774L15.0625 15.4399L15.0875 15.0649C15.1375 14.3399 16.1 13.9774 16.625 14.5024C16.7625 14.6399 16.875 14.9149 16.875 15.1274Z" fill="white"/>
    <path d="M21.85 13.9625L21.5 14.3V13.9V13.5H20.3125H19.125V13.875C19.125 14.175 19.175 14.25 19.3875 14.25C19.525 14.25 19.75 14.3125 19.8875 14.375C20.1 14.5 20.125 14.65 20.125 16.1125C20.125 17.85 20.1125 17.875 19.425 17.875C19.1625 17.875 19.125 17.9375 19.125 18.3125V18.75H20.6875H22.25V18.3125C22.25 17.975 22.2 17.875 22.025 17.875C21.6 17.875 21.5 17.6125 21.5 16.425C21.5 15.45 21.5375 15.225 21.7875 14.8625C22.0375 14.4875 22.1375 14.4375 22.625 14.4375C23.3625 14.4375 23.5 14.7 23.5 16.225C23.5 17.5375 23.3875 17.875 22.925 17.875C22.65 17.875 22.6125 17.925 22.65 18.275L22.6875 18.6875H24.0625H25.4375L25.475 18.275C25.5125 17.95 25.475 17.875 25.2875 17.875C24.85 17.875 24.75 17.6125 24.75 16.5C24.75 15.275 24.975 14.6625 25.5375 14.4C26.0375 14.15 26.45 14.3 26.6125 14.7625C26.8 15.3125 26.7875 17.5375 26.6 17.725C26.5125 17.8125 26.35 17.875 26.225 17.875C26.05 17.875 26 17.975 26 18.3125V18.75H27.5H29V18.3125C29 17.9 28.975 17.875 28.5625 17.875C28.025 17.875 28.0125 17.8375 27.975 15.725C27.9375 14.25 27.9125 14.125 27.6375 13.825C27.0625 13.2125 25.9375 13.275 25.125 13.9625L24.7375 14.2875L24.55 14.0125C24.15 13.45 23.2375 13.225 22.5 13.5125C22.325 13.5875 22.0375 13.7875 21.85 13.9625Z" fill="white"/>
    <path fill-rule="evenodd" clip-rule="evenodd" d="M36.275 15.9409C36.2 17.0784 36.375 17.6159 37 18.1784C38.0625 19.1284 39.6625 19.1034 40.5625 18.1034C40.8 17.8409 41 17.5534 41 17.4534C41 17.3534 41.0375 17.1909 41.075 17.0784C41.1375 16.9159 41.0625 16.8784 40.6625 16.8784C40.2375 16.8784 40.1625 16.9284 40.0375 17.2534C39.95 17.5034 39.7375 17.6909 39.4625 17.8159C38.7625 18.1034 38.125 17.8159 37.8 17.0409C37.4625 16.2409 37.4375 16.2534 39.3875 16.2534H41.1625L41.0875 15.6909C40.85 14.0159 39.625 13.1159 38.05 13.5034C36.9875 13.7534 36.3625 14.6159 36.275 15.9409ZM39.625 15.1284V15.5034H38.6875C37.7875 15.5034 37.75 15.4909 37.75 15.2034C37.75 15.0409 37.8625 14.7659 38.0125 14.5784C38.3375 14.1659 39 14.1284 39.375 14.5034C39.5125 14.6409 39.625 14.9159 39.625 15.1284Z" fill="white"/>
    <path d="M44.5 13.9375C44.325 14.15 44.3125 14.1375 44.25 13.8625C44.175 13.575 44.125 13.5625 43.025 13.525L41.875 13.4875V13.875C41.875 14.175 41.925 14.25 42.1375 14.25C42.275 14.25 42.5 14.3125 42.6375 14.375C42.85 14.5 42.875 14.65 42.875 16.1125C42.875 17.85 42.8625 17.875 42.175 17.875C41.9125 17.875 41.875 17.9375 41.875 18.3125V18.75H43.5625H45.25V18.3125C45.25 17.9125 45.2125 17.875 44.9 17.875C44.3375 17.875 44.25 17.675 44.25 16.4875C44.25 14.8875 44.6375 14.1125 45.425 14.1375C45.6375 14.1375 45.7375 14.175 45.65 14.2125C45.3375 14.3375 45.225 14.875 45.4375 15.2125C45.725 15.6375 46.475 15.575 46.7375 15.1125C47.0125 14.6125 46.825 13.925 46.3375 13.625C45.875 13.3375 45.5875 13.325 45.0625 13.55C44.85 13.6375 44.6 13.8125 44.5 13.9375Z" fill="white"/>
    <path d="M34.4123 27.625C34.1248 28.7375 34.1248 31.025 34.4248 32.125C35.0623 34.4375 36.6248 36.3875 38.7498 37.4875C40.1623 38.225 41.3498 38.5 43.1123 38.5C44.7498 38.4875 45.3748 38.3875 46.3248 37.9125L46.9998 37.5875V35.3V33.0125L45.9123 33.5375C44.9123 34.0125 44.7248 34.0625 43.6248 34.1C42.6373 34.1375 42.3123 34.1 41.7248 33.875C40.7248 33.5 39.7623 32.6 39.2998 31.6C38.9748 30.9 38.9373 30.675 38.9373 29.625C38.9373 28.6125 38.9873 28.3375 39.2748 27.725C39.9373 26.2875 41.1373 25.375 42.6998 25.1125C43.7998 24.925 44.5998 25.0875 45.9873 25.75L46.9998 26.2375L46.9748 23.975L46.9373 21.7L45.9998 21.4C45.2998 21.175 44.6998 21.1 43.6248 21.0625C42.8373 21.0375 42.0248 21.05 41.8123 21.075C38.1748 21.6625 35.3123 24.1875 34.4123 27.625Z" fill="white"/>
    <path d="M3.125 38.5H5.5H7.875V35.1875V31.875H10.125H12.375V29.9375V28H10.125H7.875V26.625V25.25H10.3125H12.75V23.3125V21.375H7.9375H3.125V29.9375V38.5Z" fill="white"/>
    <path fill-rule="evenodd" clip-rule="evenodd" d="M13.5 38.5258L17.0375 38.4633C19.9125 38.4133 20.775 38.3508 21.6875 38.1508C25.125 37.4008 27.25 35.5133 28.075 32.5008C28.3875 31.3758 28.3875 28.5133 28.0875 27.3758C27.3375 24.5508 25.3 22.5008 22.4375 21.6633C21.8125 21.4883 21.0125 21.4383 17.6 21.4008L13.5 21.3633V29.9508V38.5258ZM23.625 29.8133C23.625 31.7758 22.7875 33.2383 21.275 33.9133C20.475 34.2758 19.5 34.5008 18.7375 34.5008H18.25V29.8633V25.2133L19.35 25.2758C20.2 25.3258 20.6375 25.4258 21.2375 25.6883C22.7875 26.3883 23.625 27.8383 23.625 29.8133Z" fill="white"/>
    <path d="M28.875 38.5H31.25H33.625V29.9375V21.375H31.25H28.875V29.9375V38.5Z" fill="white"/>
  </g>
</svg>
