<svg width="192" height="56" fill="none" xmlns="http://www.w3.org/2000/svg"><rect width="192" height="56" rx="10" fill="#151515"/><path d="M70.9 16.044c0 .999-.307 1.8-.91 2.396-.695.707-1.599 1.063-2.707 1.063-1.058 0-1.963-.361-2.704-1.075-.743-.724-1.114-1.613-1.114-2.676 0-1.064.37-1.952 1.114-2.67.742-.72 1.646-1.082 2.704-1.082.527 0 1.03.106 1.51.304.477.199.867.468 1.149.8l-.64.631c-.493-.567-1.162-.846-2.019-.846-.772 0-1.442.263-2.01.794-.562.533-.844 1.222-.844 2.069s.282 1.542.844 2.075a2.87 2.87 0 002.01.794c.82 0 1.51-.27 2.053-.8.359-.352.563-.837.616-1.456h-2.669v-.864h3.561a2.4 2.4 0 01.055.543v0zM76.548 13.045h-3.344v2.274h3.015v.865h-3.015v2.273h3.344v.881h-4.291v-7.174h4.291v.881zM80.535 19.338h-.947v-6.293h-2.051v-.88h5.051v.88h-2.053v6.293zM86.244 19.338v-7.174h.945v7.175h-.945zM91.38 19.338h-.94v-6.293h-2.059v-.88h5.058v.88h-2.06v6.293zM103.003 18.416c-.725.726-1.623 1.087-2.694 1.087-1.077 0-1.975-.361-2.7-1.087-.723-.724-1.083-1.613-1.083-2.664 0-1.052.36-1.94 1.084-2.665.724-.725 1.622-1.087 2.699-1.087 1.065 0 1.963.362 2.688 1.094.729.73 1.089 1.612 1.089 2.658 0 1.051-.36 1.94-1.083 2.664zm-4.693-.601c.545.537 1.209.806 1.999.806.785 0 1.454-.27 1.994-.806.544-.537.819-1.227.819-2.063 0-.836-.275-1.526-.819-2.063-.54-.537-1.209-.806-1.994-.806-.79 0-1.454.269-2 .806-.543.537-.819 1.227-.819 2.063 0 .836.276 1.526.82 2.063v0zM105.415 19.338v-7.174h1.149l3.573 5.58h.041l-.041-1.38v-4.2h.945v7.175h-.987l-3.741-5.855h-.042l.042 1.385v4.47h-.939v0z" fill="#fff" stroke="#fff" stroke-width=".147" stroke-miterlimit="10"/><path d="M96.294 29.817c-2.88 0-5.231 2.139-5.231 5.09 0 2.928 2.352 5.09 5.23 5.09 2.886 0 5.238-2.162 5.238-5.09 0-2.951-2.352-5.09-5.237-5.09zm0 8.175c-1.58 0-2.94-1.273-2.94-3.085 0-1.835 1.36-3.086 2.94-3.086 1.58 0 2.944 1.25 2.944 3.086 0 1.812-1.365 3.085-2.944 3.085zM84.88 29.817c-2.885 0-5.23 2.139-5.23 5.09 0 2.928 2.345 5.09 5.23 5.09 2.884 0 5.231-2.162 5.231-5.09 0-2.951-2.347-5.09-5.23-5.09zm0 8.175c-1.58 0-2.944-1.273-2.944-3.085 0-1.835 1.363-3.086 2.944-3.086 1.58 0 2.94 1.25 2.94 3.086 0 1.812-1.36 3.085-2.94 3.085zM71.3 31.377v2.163h5.29c-.155 1.209-.569 2.097-1.203 2.717-.772.748-1.975 1.578-4.088 1.578-3.256 0-5.805-2.566-5.805-5.745 0-3.178 2.55-5.744 5.805-5.744 1.76 0 3.042.672 3.987 1.542l1.561-1.524c-1.322-1.233-3.08-2.18-5.548-2.18-4.464 0-8.217 3.547-8.217 7.906 0 4.36 3.753 7.906 8.217 7.906 2.413 0 4.226-.772 5.65-2.22 1.461-1.425 1.916-3.43 1.916-5.048 0-.503-.043-.965-.12-1.351H71.3zm55.534 1.677c-.43-1.139-1.759-3.237-4.464-3.237-2.682 0-4.914 2.063-4.914 5.09 0 2.852 2.209 5.09 5.171 5.09a5.195 5.195 0 004.345-2.257l-1.777-1.156c-.593.847-1.401 1.408-2.568 1.408-1.16 0-1.992-.52-2.525-1.542l6.973-2.817-.241-.58zm-7.109 1.695a2.823 2.823 0 012.723-2.968c.91 0 1.682.444 1.939 1.08l-4.662 1.888zm-5.667 4.938h2.292v-14.96h-2.292v14.96zm-3.754-8.736h-.077c-.515-.596-1.497-1.134-2.741-1.134-2.611 0-4.998 2.237-4.998 5.107 0 2.852 2.387 5.072 4.998 5.072 1.244 0 2.226-.543 2.741-1.156h.077v.73c0 1.946-1.065 2.992-2.783 2.992-1.4 0-2.269-.987-2.627-1.818l-1.994.813c.575 1.349 2.096 3.01 4.621 3.01 2.688 0 4.955-1.544 4.955-5.3v-9.14h-2.172v.824zm-2.622 7.04c-1.579 0-2.902-1.29-2.902-3.067 0-1.794 1.323-3.103 2.902-3.103 1.557 0 2.784 1.31 2.784 3.103 0 1.777-1.227 3.068-2.784 3.068zm29.884-13.264h-5.482v14.96h2.286v-5.668h3.196c2.538 0 5.028-1.794 5.028-4.647 0-2.85-2.496-4.645-5.028-4.645zm.059 7.21h-3.255v-5.129h3.255a2.627 2.627 0 012.682 2.564c0 1.158-.975 2.566-2.682 2.566zm14.132-2.149c-1.652 0-3.37.712-4.076 2.29l2.029.83c.436-.83 1.239-1.099 2.088-1.099 1.186 0 2.389.696 2.407 1.924v.157c-.414-.233-1.299-.579-2.389-.579-2.185 0-4.411 1.174-4.411 3.366 0 2.005 1.79 3.295 3.802 3.295 1.538 0 2.387-.677 2.92-1.466h.078v1.157h2.208v-5.739c0-2.652-2.029-4.136-4.656-4.136zm-.276 8.198c-.748 0-1.79-.362-1.79-1.267 0-1.158 1.3-1.602 2.424-1.602 1.007 0 1.479.217 2.09.502-.179 1.386-1.4 2.367-2.724 2.367zm12.976-7.87l-2.628 6.485h-.078l-2.717-6.485h-2.465l4.082 9.062-2.329 5.043h2.389L167 30.116h-2.543zm-20.606 9.57h2.292V24.728h-2.292v14.96z" fill="#fff"/><path d="M25.568 12.806c-.36.368-.568.941-.568 1.683v26.466c0 .742.208 1.315.568 1.683l.09.08 15.19-14.824v-.35L25.657 12.72l-.09.087z" fill="url(#paint0_linear_1_2)"/><path d="M45.905 32.836l-5.058-4.944v-.35l5.064-4.944.114.064 5.997 3.332c1.711.945 1.711 2.5 0 3.452l-5.997 3.326-.12.064z" fill="url(#paint1_linear_1_2)"/><path d="M46.025 32.771l-5.178-5.055-15.278 14.92c.568.582 1.495.653 2.55.07l17.906-9.935" fill="url(#paint2_linear_1_2)"/><path d="M46.025 22.664L28.118 12.73c-1.054-.578-1.981-.508-2.55.076l15.28 14.913 5.177-5.055z" fill="url(#paint3_linear_1_2)"/><defs><linearGradient id="paint0_linear_1_2" x1="39.499" y1="41.231" x2="19.42" y2="20.666" gradientUnits="userSpaceOnUse"><stop stop-color="#00A0FF"/><stop offset=".007" stop-color="#00A1FF"/><stop offset=".26" stop-color="#00BEFF"/><stop offset=".512" stop-color="#00D2FF"/><stop offset=".76" stop-color="#00DFFF"/><stop offset="1" stop-color="#00E3FF"/></linearGradient><linearGradient id="paint1_linear_1_2" x1="54.25" y1="27.715" x2="24.591" y2="27.715" gradientUnits="userSpaceOnUse"><stop stop-color="#FFE000"/><stop offset=".409" stop-color="#FFBD00"/><stop offset=".775" stop-color="orange"/><stop offset="1" stop-color="#FF9C00"/></linearGradient><linearGradient id="paint2_linear_1_2" x1="43.209" y1="24.968" x2="15.982" y2="-2.919" gradientUnits="userSpaceOnUse"><stop stop-color="#FF3A44"/><stop offset="1" stop-color="#C31162"/></linearGradient><linearGradient id="paint3_linear_1_2" x1="21.723" y1="51.443" x2="33.881" y2="38.99" gradientUnits="userSpaceOnUse"><stop stop-color="#32A071"/><stop offset=".069" stop-color="#2DA771"/><stop offset=".476" stop-color="#15CF74"/><stop offset=".801" stop-color="#06E775"/><stop offset="1" stop-color="#00F076"/></linearGradient></defs></svg>