<svg width="24" height="24" fill="none" xmlns="http://www.w3.org/2000/svg"><path d="M20.947 8.304a6.531 6.531 0 00-.419-2.216 4.61 4.61 0 00-2.633-2.633 6.606 6.606 0 00-2.186-.42c-.962-.043-1.267-.055-3.709-.055s-2.755 0-3.71.055a6.606 6.606 0 00-2.185.42 4.607 4.607 0 00-2.633 2.633 6.554 6.554 0 00-.419 2.185c-.043.963-.056 1.268-.056 3.71s0 2.755.056 3.71c.015.749.156 1.487.419 2.188a4.61 4.61 0 002.634 2.631 6.586 6.586 0 002.185.45c.963.044 1.268.056 3.71.056s2.755 0 3.71-.056a6.59 6.59 0 002.186-.418 4.615 4.615 0 002.633-2.634c.263-.7.404-1.438.419-2.187.043-.962.056-1.267.056-3.71-.002-2.442-.002-2.752-.058-3.709zm-8.953 8.298a4.622 4.622 0 01-4.623-4.623 4.622 4.622 0 114.623 4.623zm4.807-8.34a1.077 1.077 0 11-.002-2.154 1.077 1.077 0 01.002 2.154z" fill="#fff"/><path d="M11.994 14.983a3.003 3.003 0 100-6.006 3.003 3.003 0 000 6.006z" fill="#fff"/></svg>