<svg width="24" height="24" fill="none" xmlns="http://www.w3.org/2000/svg"><path d="M3.832 5.82l2.307-2.305a1.75 1.75 0 012.484 0l2.482 2.483a1.75 1.75 0 010 2.484L9.29 10.297a8.528 8.528 0 001.744 2.515 8.562 8.562 0 002.514 1.75l1.816-1.815a1.748 1.748 0 011.24-.516c.47 0 .912.184 1.244.516l2.484 2.48a1.75 1.75 0 01.516 1.243c0 .47-.184.912-.516 1.243l-2.302 2.303a2.847 2.847 0 01-2.467.792c-2.92-.48-5.816-2.033-8.153-4.368-2.335-2.333-3.886-5.227-4.373-8.155a2.85 2.85 0 01.795-2.465z" fill="#fff"/></svg>