<svg width="193" height="193" fill="none" xmlns="http://www.w3.org/2000/svg"><mask id="a" style="mask-type:alpha" maskUnits="userSpaceOnUse" x="0" y="0" width="193" height="193"><path fill="#fff" d="M0 0h193v193H0z"/></mask><g mask="url(#a)" fill="#fff"><path d="M67.47 125.342h15.687l9.817-57.56H77.278l-9.808 57.56zM38.952 107.099l-1.638-5.928c-3.03-7.141-11.632-17.398-21.732-23.861l14.05 48.002 16.599-.029 24.705-57.451-16.62.012L38.953 107.1z"/><path d="M24.523 67.29H.202L0 68.434c18.927 4.591 31.451 15.655 36.648 28.958l-5.29-25.428c-.912-3.506-3.554-4.55-6.835-4.676zM136.509 81.02l1.416.665 2.122-12.475c-3.106-1.166-7.976-2.417-14.053-2.417-15.501 0-26.428 7.807-26.512 18.996-.101 8.267 7.783 12.883 13.738 15.639 6.113 2.824 8.162 4.619 8.134 7.141-.048 3.853-4.874 5.621-9.381 5.621-6.282 0-9.619-.868-14.771-3.014l-2.022-.92-2.207 12.883c3.672 1.61 10.447 2.994 17.479 3.066 16.49 0 27.207-7.714 27.32-19.669.068-6.54-4.116-11.532-13.182-15.627-5.487-2.671-8.844-4.446-8.812-7.142 0-2.392 2.849-4.95 8.99-4.95 5.132-.081 8.852 1.04 11.741 2.203z"/><path fill-rule="evenodd" clip-rule="evenodd" d="M168.186 67.844c-3.764 0-6.564 1.025-8.219 4.777l-23.293 52.751h16.474s2.688-7.093 3.297-8.647c1.803 0 17.809.024 20.089.024.468 2.01 1.913 8.623 1.913 8.623H193l-12.693-57.528h-12.121zm-.976 21.013c-.085.157 1.279-3.329 2.09-5.495l1.057 4.962 3.635 16.62H160.96a14909.5 14909.5 0 006.25-16.087z"/></g></svg>