<svg width="150" height="150" fill="none" xmlns="http://www.w3.org/2000/svg"><mask id="a" style="mask-type:alpha" maskUnits="userSpaceOnUse" x="0" y="0" width="150" height="150"><path fill="#fff" d="M0 0h150v150H0z"/></mask><g mask="url(#a)" fill="#fff"><path d="M52.438 97.416H64.63l7.63-44.736h-12.2l-7.622 44.736zM30.273 83.237L29 78.63c-2.355-5.55-9.04-13.521-16.89-18.545l10.92 37.307 12.9-.022 19.201-44.651-12.916.01-11.942 30.508z"/><path d="M19.06 52.297H.157l-.157.89c14.71 3.569 24.444 12.168 28.483 22.506l-4.111-19.762c-.709-2.725-2.763-3.537-5.312-3.634zM106.095 62.967l1.101.518 1.649-9.697c-2.414-.906-6.199-1.878-10.922-1.878-12.048 0-20.54 6.068-20.606 14.764-.078 6.425 6.05 10.012 10.678 12.154 4.75 2.195 6.344 3.59 6.322 5.55-.038 2.995-3.788 4.369-7.291 4.369-4.882 0-7.476-.674-11.48-2.343l-1.571-.715-1.716 10.013c2.854 1.251 8.119 2.327 13.585 2.383 12.816 0 21.145-5.995 21.233-15.287.053-5.083-3.199-8.962-10.245-12.145-4.265-2.076-6.874-3.456-6.849-5.55 0-1.86 2.214-3.848 6.987-3.848 3.989-.063 6.88.809 9.125 1.712z"/><path fill-rule="evenodd" clip-rule="evenodd" d="M130.715 52.73c-2.926 0-5.102.797-6.388 3.713l-18.103 40.998h12.804s2.088-5.513 2.562-6.72c1.401 0 13.841.019 15.613.019a881.152 881.152 0 011.486 6.701H150l-9.865-44.71h-9.42zm-.759 16.332c-.066.122.994-2.587 1.624-4.271l.822 3.857 2.825 12.917h-10.128c1.003-2.569 4.857-12.503 4.857-12.503z"/></g></svg>