<svg width="80" height="80" fill="none" xmlns="http://www.w3.org/2000/svg"><mask id="a" style="mask-type:alpha" maskUnits="userSpaceOnUse" x="0" y="0" width="80" height="80"><path fill="#fff" d="M0 0h80v80H0z"/></mask><g mask="url(#a)"><path d="M7.2 16.531c.456 17.135 7.301 50.064 31.92 59.31a2.52 2.52 0 001.76 0c24.619-9.246 31.464-42.175 31.919-59.31.03-1.096-.691-2.065-1.756-2.417L40.841 4.135a2.683 2.683 0 00-1.682 0l-30.203 9.98c-1.064.35-1.784 1.32-1.755 2.416z" fill="#fff"/><path d="M28.8 41.268l8.664 7.658a1 1 0 001.424-.102L55.2 29.602" stroke="#241E35" stroke-width="10" stroke-linecap="round"/></g></svg>