<svg width="160" height="160" viewBox="0 0 160 160" fill="none" xmlns="http://www.w3.org/2000/svg">
    <mask id="mask0_4411_19837" style="mask-type:alpha" maskUnits="userSpaceOnUse" x="0" y="0" width="160" height="160">
        <rect width="160" height="160" fill="white"/>
    </mask>
    <g mask="url(#mask0_4411_19837)">
        <path d="M10.44 39.203C10.88 39.203 11.6 39.403 12.04 39.603C12.76 40.003 12.8 40.523 12.8 48.203C12.8 55.883 12.76 56.403 12.04 56.803C11.6 57.003 10.88 57.203 10.44 57.203C9.75998 57.203 9.59998 57.443 9.59998 58.603V60.003H14.8H20V58.603C20 57.363 19.88 57.203 19 57.203C18.44 57.203 17.64 56.843 17.2 56.403C16.48 55.683 16.4 55.083 16.4 48.923C16.4 45.243 16.56 42.403 16.72 42.603C16.92 42.843 18.4 46.843 20 51.523L22.96 60.043L24.32 59.923L25.68 59.803L28.96 51.083L32.2 42.363L32.32 49.283C32.44 56.883 32.32 57.203 29.92 57.203C28.92 57.203 28.8 57.323 28.8 58.603V60.003H35H41.2V58.603C41.2 57.283 41.12 57.203 39.88 57.203C39.16 57.203 38.36 57.003 38.08 56.723C37.72 56.363 37.6 53.963 37.6 48.363C37.6 39.803 37.6 39.843 39.92 39.363C41 39.123 41.2 38.923 41.2 37.923V36.763L35.76 36.883L30.32 37.003L27.92 43.603C26.6 47.243 25.4 50.323 25.24 50.483C25.12 50.643 23.92 47.643 22.6 43.803L20.2 36.803H14.92H9.59998V38.003C9.59998 38.963 9.75998 39.203 10.44 39.203Z" fill="white"/>
        <path fill-rule="evenodd" clip-rule="evenodd" d="M95.16 39.2008C95.84 39.2008 96.4 39.4408 96.56 39.8408C96.68 40.2008 96.8 44.8808 96.8 50.2408V60.0008H97.96C98.68 60.0008 99.32 59.6808 99.68 59.1208L100.24 58.2808L101.56 59.2408C103.4 60.6008 107.6 60.6408 109.52 59.2808C111.72 57.6808 112.6 55.5208 112.6 51.6008C112.6 47.2808 111.56 45.0808 108.8 43.6808C106.52 42.5608 105.36 42.5608 103.04 43.8008L101.2 44.7608V40.8008V36.8008H97.6H94V38.0008C94 39.0408 94.12 39.2008 95.16 39.2008ZM107.44 55.0008C106.2 57.9208 103.36 58.2408 101.84 55.6408C100.4 53.2008 101.12 47.0008 102.88 46.2408C103.16 46.1608 104.04 46.0808 104.8 46.1208C105.88 46.2008 106.36 46.4808 107.08 47.5608C108.16 49.1608 108.36 52.8008 107.44 55.0008Z" fill="white"/>
        <path fill-rule="evenodd" clip-rule="evenodd" d="M43.2 51.6806C43.2 56.0006 45.12 58.8006 48.76 59.8806C52.84 61.0406 56.44 59.8006 57.96 56.6406C59.12 54.2806 59.04 54.0006 57.2 54.0006C56.08 54.0006 55.6 54.1606 55.6 54.5606C55.6 54.8806 55.2 55.6406 54.68 56.2006C53.52 57.5606 51.28 57.7206 49.72 56.5606C48.6 55.7206 47.4 53.0406 47.84 52.3606C47.96 52.1606 50.48 52.0006 53.44 52.0006C59.52 52.0006 59.24 52.2006 58.36 48.5206C57.76 46.2006 55.56 43.8406 53.4 43.2406C51.52 42.7206 50.68 42.7206 48.8 43.2806C45.44 44.2406 43.2 47.6006 43.2 51.6806ZM54 48.4006V49.6406L51.12 49.5206L48.2 49.4006L48.28 48.2006C48.44 45.8806 51.52 44.7206 53.2 46.4006C53.64 46.8406 54 47.7206 54 48.4006Z" fill="white"/>
        <path d="M69.92 44.68L68.8 45.76V44.48V43.2H65H61.2V44.4C61.2 45.36 61.36 45.6 62.04 45.6C62.48 45.6 63.2 45.8 63.64 46C64.32 46.4 64.4 46.88 64.4 51.56C64.4 57.12 64.36 57.2 62.16 57.2C61.32 57.2 61.2 57.4 61.2 58.6V60H66.2H71.2V58.6C71.2 57.52 71.04 57.2 70.48 57.2C69.12 57.2 68.8 56.36 68.8 52.56C68.8 49.44 68.92 48.72 69.72 47.56C70.52 46.36 70.84 46.2 72.4 46.2C74.76 46.2 75.2 47.04 75.2 51.92C75.2 56.12 74.84 57.2 73.36 57.2C72.48 57.2 72.36 57.36 72.48 58.48L72.6 59.8H77H81.4L81.52 58.48C81.64 57.44 81.52 57.2 80.92 57.2C79.52 57.2 79.2 56.36 79.2 52.8C79.2 48.88 79.92 46.92 81.7199 46.08C83.32 45.28 84.6399 45.76 85.16 47.24C85.76 49 85.7199 56.12 85.1199 56.72C84.8399 57 84.32 57.2 83.92 57.2C83.36 57.2 83.1999 57.52 83.1999 58.6V60H88H92.7999V58.6C92.7999 57.28 92.7199 57.2 91.4 57.2C89.68 57.2 89.6399 57.08 89.5199 50.32C89.3999 45.6 89.3199 45.2 88.4399 44.24C86.5999 42.28 83 42.48 80.4 44.68L79.16 45.72L78.5599 44.84C77.2799 43.04 74.36 42.32 72 43.24C71.4399 43.48 70.52 44.12 69.92 44.68Z" fill="white"/>
        <path fill-rule="evenodd" clip-rule="evenodd" d="M116.08 50.9998C115.84 54.6398 116.4 56.3598 118.4 58.1598C121.8 61.1998 126.92 61.1198 129.8 57.9198C130.56 57.0798 131.2 56.1598 131.2 55.8398C131.2 55.5198 131.32 54.9998 131.44 54.6398C131.64 54.1198 131.4 53.9998 130.12 53.9998C128.76 53.9998 128.52 54.1598 128.12 55.1998C127.84 55.9998 127.16 56.5998 126.28 56.9998C124.04 57.9198 122 56.9998 120.96 54.5198C119.88 51.9598 119.8 51.9998 126.04 51.9998H131.72L131.48 50.1998C130.72 44.8398 126.8 41.9598 121.76 43.1998C118.36 43.9998 116.36 46.7598 116.08 50.9998ZM126.8 48.3998V49.5998H123.8C120.92 49.5998 120.8 49.5598 120.8 48.6398C120.8 48.1198 121.16 47.2398 121.64 46.6398C122.68 45.3198 124.8 45.1998 126 46.3998C126.44 46.8398 126.8 47.7198 126.8 48.3998Z" fill="white"/>
        <path d="M142.4 44.6C141.84 45.28 141.8 45.24 141.6 44.36C141.36 43.44 141.2 43.4 137.68 43.28L134 43.16V44.4C134 45.36 134.16 45.6 134.84 45.6C135.28 45.6 136 45.8 136.44 46C137.12 46.4 137.2 46.88 137.2 51.56C137.2 57.12 137.16 57.2 134.96 57.2C134.12 57.2 134 57.4 134 58.6V60H139.4H144.8V58.6C144.8 57.32 144.68 57.2 143.68 57.2C141.88 57.2 141.6 56.56 141.6 52.76C141.6 47.64 142.84 45.16 145.36 45.24C146.04 45.24 146.36 45.36 146.08 45.48C145.08 45.88 144.72 47.6 145.4 48.68C146.32 50.04 148.72 49.84 149.56 48.36C150.44 46.76 149.84 44.56 148.28 43.6C146.8 42.68 145.88 42.64 144.2 43.36C143.52 43.64 142.72 44.2 142.4 44.6Z" fill="white"/>
        <path d="M110.12 88.4031C109.2 91.9631 109.2 99.2831 110.16 102.803C112.2 110.203 117.2 116.443 124 119.963C128.52 122.323 132.32 123.203 137.96 123.203C143.2 123.163 145.2 122.843 148.24 121.323L150.4 120.283V112.963V105.643L146.92 107.323C143.72 108.843 143.12 109.003 139.6 109.123C136.44 109.243 135.4 109.123 133.52 108.403C130.32 107.203 127.24 104.323 125.76 101.123C124.72 98.8831 124.6 98.1631 124.6 94.8031C124.6 91.5631 124.76 90.6831 125.68 88.7231C127.8 84.1231 131.64 81.2031 136.64 80.3631C140.16 79.7631 142.72 80.2831 147.16 82.4031L150.4 83.9631L150.32 76.7231L150.2 69.4431L147.2 68.4831C144.96 67.7631 143.04 67.5231 139.6 67.4031C137.08 67.3231 134.48 67.3631 133.8 67.4431C122.16 69.3231 113 77.4031 110.12 88.4031Z" fill="white"/>
        <path d="M10 123.203H17.6H25.2V112.603V102.003H32.4H39.6V95.8031V89.6031H32.4H25.2V85.2031V80.8031H33H40.8V74.6031V68.4031H25.4H10V95.8031V123.203Z" fill="white"/>
        <path fill-rule="evenodd" clip-rule="evenodd" d="M43.2 123.283L54.52 123.083C63.72 122.923 66.48 122.723 69.4 122.083C80.4 119.683 87.2 113.643 89.84 104.003C90.84 100.403 90.84 91.2433 89.88 87.6033C87.48 78.5633 80.96 72.0033 71.8 69.3233C69.8 68.7633 67.24 68.6033 56.32 68.4833L43.2 68.3633V95.8433V123.283ZM75.6 95.4033C75.6 101.683 72.92 106.363 68.08 108.523C65.52 109.683 62.4 110.403 59.96 110.403H58.4V95.5633V80.6833L61.92 80.8833C64.64 81.0433 66.04 81.3633 67.96 82.2033C72.92 84.4433 75.6 89.0833 75.6 95.4033Z" fill="white"/>
        <path d="M92.3999 123.203H99.9999H107.6V95.8031V68.4031H99.9999H92.3999V95.8031V123.203Z" fill="white"/>
    </g>
</svg>
