<svg width="106" height="66" fill="none" xmlns="http://www.w3.org/2000/svg"><path d="M.83 2.401c.33 0 .87.15 1.2.3.54.3.57.69.57 6.45s-.03 6.15-.57 6.45c-.33.15-.87.3-1.2.3-.51 0-.63.18-.63 1.05v1.05H8v-1.05c0-.93-.09-1.05-.75-1.05-.42 0-1.02-.27-1.35-.6-.54-.54-.6-.99-.6-5.61 0-2.76.12-4.89.24-4.74.15.18 1.26 3.18 2.46 6.69l2.22 6.39 1.02-.09 1.02-.09 2.46-6.54 2.43-6.54.09 5.19c.09 5.7 0 5.94-1.8 5.94-.75 0-.84.09-.84 1.05v1.05h9.3v-1.05c0-.99-.06-1.05-.99-1.05-.54 0-1.14-.15-1.35-.36-.27-.27-.36-2.07-.36-6.27 0-6.42 0-6.39 1.74-6.75.81-.18.96-.33.96-1.08v-.87l-4.08.09-4.08.09-1.8 4.95c-.99 2.73-1.89 5.04-2.01 5.16-.09.12-.99-2.13-1.98-5.01L8.15.601H.2v.9c0 .72.12.9.63.9z" fill="#fff"/><path fill-rule="evenodd" clip-rule="evenodd" d="M64.37 2.402c.51 0 .93.18 1.05.48.09.27.18 3.78.18 7.8v7.32h.87c.54 0 1.02-.24 1.29-.66l.42-.63.99.72c1.38 1.02 4.53 1.05 5.97.03 1.65-1.2 2.31-2.82 2.31-5.76 0-3.24-.78-4.89-2.85-5.94-1.71-.84-2.58-.84-4.32.09l-1.38.72V.602h-5.4v.9c0 .78.09.9.87.9zm9.21 11.85c-.93 2.19-3.06 2.43-4.2.48-1.08-1.83-.54-6.48.78-7.05.21-.06.87-.12 1.44-.09.81.06 1.17.27 1.71 1.08.81 1.2.96 3.93.27 5.58zM25.4 11.76c0 3.24 1.44 5.34 4.17 6.15 3.06.87 5.76-.06 6.9-2.43.87-1.77.81-1.98-.57-1.98-.84 0-1.2.12-1.2.42 0 .24-.3.81-.69 1.23-.87 1.02-2.55 1.14-3.72.27-.84-.63-1.74-2.64-1.41-3.15.09-.15 1.98-.27 4.2-.27 4.56 0 4.35.15 3.69-2.61-.45-1.74-2.1-3.51-3.72-3.96-1.41-.39-2.04-.39-3.45.03-2.52.72-4.2 3.24-4.2 6.3zm8.1-2.46v.93l-2.16-.09-2.19-.09.06-.9c.12-1.74 2.43-2.61 3.69-1.35.33.33.6.99.6 1.5z" fill="#fff"/><path d="M45.44 6.51l-.84.81V5.4h-5.7v.9c0 .72.12.9.63.9.33 0 .87.15 1.2.3.51.3.57.66.57 4.17 0 4.17-.03 4.23-1.68 4.23-.63 0-.72.15-.72 1.05V18h7.5v-1.05c0-.81-.12-1.05-.54-1.05-1.02 0-1.26-.63-1.26-3.48 0-2.34.09-2.88.69-3.75.6-.9.84-1.02 2.01-1.02 1.77 0 2.1.63 2.1 4.29 0 3.15-.27 3.96-1.38 3.96-.66 0-.75.12-.66.96l.09.99h6.6l.09-.99c.09-.78 0-.96-.45-.96-1.05 0-1.29-.63-1.29-3.3 0-2.94.54-4.41 1.89-5.04 1.2-.6 2.19-.24 2.58.87.45 1.32.42 6.66-.03 7.11-.21.21-.6.36-.9.36-.42 0-.54.24-.54 1.05V18h7.2v-1.05c0-.99-.06-1.05-1.05-1.05-1.29 0-1.32-.09-1.41-5.16-.09-3.54-.15-3.84-.81-4.56-1.38-1.47-4.08-1.32-6.03.33l-.93.78-.45-.66c-.96-1.35-3.15-1.89-4.92-1.2-.42.18-1.11.66-1.56 1.08z" fill="#fff"/><path fill-rule="evenodd" clip-rule="evenodd" d="M80.06 11.252c-.18 2.73.24 4.02 1.74 5.37 2.55 2.28 6.39 2.22 8.55-.18.57-.63 1.05-1.32 1.05-1.56s.09-.63.18-.9c.15-.39-.03-.48-.99-.48-1.02 0-1.2.12-1.5.9-.21.6-.72 1.05-1.38 1.35-1.68.69-3.21 0-3.99-1.86-.81-1.92-.87-1.89 3.81-1.89h4.26l-.18-1.35c-.57-4.02-3.51-6.18-7.29-5.25-2.55.6-4.05 2.67-4.26 5.85zm8.04-1.95v.9h-2.25c-2.16 0-2.25-.03-2.25-.72 0-.39.27-1.05.63-1.5.78-.99 2.37-1.08 3.27-.18.33.33.6.99.6 1.5z" fill="#fff"/><path d="M99.8 6.45c-.42.51-.45.48-.6-.18-.18-.69-.3-.72-2.94-.81l-2.76-.09v.93c0 .72.12.9.63.9.33 0 .87.15 1.2.3.51.3.57.66.57 4.17 0 4.17-.03 4.23-1.68 4.23-.63 0-.72.15-.72 1.05V18h8.1v-1.05c0-.96-.09-1.05-.84-1.05-1.35 0-1.56-.48-1.56-3.33 0-3.84.93-5.7 2.82-5.64.51 0 .75.09.54.18-.75.3-1.02 1.59-.51 2.4.69 1.02 2.49.87 3.12-.24.66-1.2.21-2.85-.96-3.57-1.11-.69-1.8-.72-3.06-.18-.51.21-1.11.63-1.35.93zM75.59 39.298c-.69 2.67-.69 8.16.03 10.8 1.53 5.55 5.28 10.23 10.38 12.87 3.39 1.77 6.24 2.43 10.47 2.43 3.93-.03 5.43-.27 7.71-1.41l1.62-.78v-10.98l-2.61 1.26c-2.4 1.14-2.85 1.26-5.49 1.35-2.37.09-3.15 0-4.56-.54-2.4-.9-4.71-3.06-5.82-5.46-.78-1.68-.87-2.22-.87-4.74 0-2.43.12-3.09.81-4.56 1.59-3.45 4.47-5.64 8.22-6.27 2.64-.45 4.56-.06 7.89 1.53l2.43 1.17-.06-5.43-.09-5.46-2.25-.72c-1.68-.54-3.12-.72-5.7-.81-1.89-.06-3.84-.03-4.35.03-8.73 1.41-15.6 7.47-17.76 15.72zM.5 65.398h11.4v-15.9h10.8v-9.3H11.9v-6.6h11.7v-9.3H.5v41.1z" fill="#fff"/><path fill-rule="evenodd" clip-rule="evenodd" d="M25.4 65.46l8.49-.15c6.9-.12 8.97-.27 11.16-.75C53.3 62.76 58.4 58.23 60.38 51c.75-2.7.75-9.57.03-12.3-1.8-6.78-6.69-11.7-13.56-13.71-1.5-.42-3.42-.54-11.61-.63l-9.84-.09v41.19zm24.3-20.91c0 4.71-2.01 8.22-5.64 9.84-1.92.87-4.26 1.41-6.09 1.41H36.8V33.51l2.64.15c2.04.12 3.09.36 4.53.99 3.72 1.68 5.73 5.16 5.73 9.9z" fill="#fff"/><path d="M62.3 65.398h11.4v-41.1H62.3v41.1z" fill="#fff"/></svg>