<svg width="194" height="60" viewBox="0 0 194 60" fill="none" xmlns="http://www.w3.org/2000/svg">
<mask id="mask0_0_1" style="mask-type:alpha" maskUnits="userSpaceOnUse" x="1" y="-66" width="193" height="193">
<rect x="1" y="-66" width="193" height="193" fill="white"/>
</mask>
<g mask="url(#mask0_0_1)">
<path d="M68.4698 59.3409H84.1571L93.9737 1.78064H78.2784L68.4698 59.3409Z" fill="white"/>
<path d="M39.952 41.0994L38.3139 35.1723C35.2838 28.0308 26.6816 17.7743 16.5825 11.3106L30.6316 59.3125L47.2308 59.2842L71.9358 1.83289L55.3165 1.84499L39.952 41.0994Z" fill="white"/>
<path d="M25.5234 1.28821H1.20174L1 2.43409C19.9272 7.02568 32.4512 18.0891 37.648 31.3918L32.3584 5.96453C31.4465 2.4583 28.8037 1.41329 25.5234 1.28821Z" fill="white"/>
<path d="M137.509 15.0184L138.925 15.6841L141.047 3.20858C137.941 2.04253 133.071 0.791748 126.994 0.791748C111.493 0.791748 100.566 8.59905 100.482 19.7875C100.381 28.0548 108.265 32.6706 114.22 35.4264C120.333 38.2507 122.382 40.0462 122.354 42.5679C122.306 46.4212 117.48 48.1884 112.973 48.1884C106.691 48.1884 103.354 47.3209 98.202 45.1744L96.1805 44.2545L93.9735 57.1375C97.6452 58.7474 104.42 60.1314 111.452 60.204C127.942 60.204 138.659 52.4895 138.772 40.5344C138.84 33.994 134.656 29.003 125.59 24.9077C120.103 22.2366 116.746 20.4613 116.778 17.7661C116.778 15.3735 119.627 12.8154 125.768 12.8154C130.9 12.7347 134.62 13.8564 137.509 15.0184Z" fill="white"/>
<path fill-rule="evenodd" clip-rule="evenodd" d="M169.186 1.84473C165.422 1.84473 162.622 2.86956 160.967 6.62191L137.674 59.3727H154.148C154.148 59.3727 156.836 52.2796 157.445 50.7262C159.248 50.7262 175.254 50.7504 177.534 50.7504C178.002 52.7597 179.447 59.3727 179.447 59.3727H194L181.307 1.84473H169.186ZM168.21 22.8579C168.125 23.0153 169.489 19.5292 170.3 17.3625L171.357 22.3253C171.357 22.3253 174.363 36.0678 174.992 38.9446H161.96C163.251 35.6401 168.21 22.8579 168.21 22.8579Z" fill="white"/>
</g>
</svg>
