<svg width="24" height="24" fill="none" xmlns="http://www.w3.org/2000/svg"><path d="M22.846 5.101a9.34 9.34 0 01-2.58.708 4.453 4.453 0 001.97-2.476 8.95 8.95 0 01-2.84 1.084 4.477 4.477 0 00-7.747 3.063c0 .355.03.696.103 1.021C8.03 8.32 4.734 6.535 2.521 3.817a4.509 4.509 0 00-.613 2.263c0 1.551.799 2.926 1.99 3.722a4.423 4.423 0 01-2.024-.551V9.3a4.5 4.5 0 003.588 4.4c-.364.1-.762.148-1.174.148-.287 0-.576-.016-.848-.077.58 1.774 2.227 3.078 4.185 3.12a8.999 8.999 0 01-5.553 1.91A8.4 8.4 0 011 18.742a12.61 12.61 0 006.87 2.009c8.242 0 12.748-6.827 12.748-12.745 0-.197-.007-.389-.016-.578A8.936 8.936 0 0022.846 5.1z" fill="#fff"/></svg>