<svg width="10" height="10" viewBox="0 0 10 10" fill="none" xmlns="http://www.w3.org/2000/svg">
    <circle cx="5" cy="5" r="4.5" stroke="white"/>
    <path d="M6.4786 5.96528C6.5226 5.96528 6.5616 5.98228 6.5956 6.01628L6.9136 6.36128C6.7376 6.57928 6.5206 6.74628 6.2626 6.86228C6.0066 6.97828 5.6986 7.03628 5.3386 7.03628C5.0166 7.03628 4.7266 6.98128 4.4686 6.87128C4.2126 6.76128 3.9936 6.60828 3.8116 6.41228C3.6296 6.21628 3.4896 5.98228 3.3916 5.71028C3.2956 5.43828 3.2476 5.14128 3.2476 4.81928C3.2476 4.49328 3.2996 4.19528 3.4036 3.92528C3.5076 3.65328 3.6536 3.41928 3.8416 3.22328C4.0316 3.02728 4.2576 2.87528 4.5196 2.76728C4.7816 2.65728 5.0716 2.60228 5.3896 2.60228C5.7056 2.60228 5.9856 2.65428 6.2296 2.75828C6.4756 2.86228 6.6846 2.99828 6.8566 3.16628L6.5866 3.54128C6.5706 3.56528 6.5496 3.58628 6.5236 3.60428C6.4996 3.62228 6.4656 3.63128 6.4216 3.63128C6.3916 3.63128 6.3606 3.62328 6.3286 3.60728C6.2966 3.58928 6.2616 3.56828 6.2236 3.54428C6.1856 3.51828 6.1416 3.49028 6.0916 3.46028C6.0416 3.43028 5.9836 3.40328 5.9176 3.37928C5.8516 3.35328 5.7746 3.33228 5.6866 3.31628C5.6006 3.29828 5.5006 3.28928 5.3866 3.28928C5.1926 3.28928 5.0146 3.32428 4.8526 3.39428C4.6926 3.46228 4.5546 3.56228 4.4386 3.69428C4.3226 3.82428 4.2326 3.98428 4.1686 4.17428C4.1046 4.36228 4.0726 4.57728 4.0726 4.81928C4.0726 5.06328 4.1066 5.28028 4.1746 5.47028C4.2446 5.66028 4.3386 5.82028 4.4566 5.95028C4.5746 6.08028 4.7136 6.18028 4.8736 6.25028C5.0336 6.31828 5.2056 6.35228 5.3896 6.35228C5.4996 6.35228 5.5986 6.34628 5.6866 6.33428C5.7766 6.32228 5.8586 6.30328 5.9326 6.27728C6.0086 6.25128 6.0796 6.21828 6.1456 6.17828C6.2136 6.13628 6.2806 6.08528 6.3466 6.02528C6.3666 6.00728 6.3876 5.99328 6.4096 5.98328C6.4316 5.97128 6.4546 5.96528 6.4786 5.96528Z" fill="white"/>
</svg>
