<svg width="106" height="106" fill="none" xmlns="http://www.w3.org/2000/svg"><path d="M1.409 52.349c0 28.141 23.098 50.954 51.591 50.954 28.493 0 51.591-22.813 51.591-50.954 0-28.141-23.098-50.954-51.59-50.954-28.494 0-51.592 22.813-51.592 50.954z" fill="#241E35"/><path d="M84.793 42.325c7.284 12.862 8.171 35.185 7.704 44.738-7.704 10.155-25.09 14.976-36.857 16.095-11.766 1.118-25.74-4.62-38.084-13.998v-6.99c-11.206-13.422-6.07-28.894-2.1-34.952.56-11.184 7.236-16.777 10.505-18.175 2.801-13.98 4.903-16.777 8.404-18.175 2.802-1.118 8.172 6.525 10.506 10.486l16.11 3.495c4.668-4.66 15.408-13.282 21.01-10.486 5.604 2.797 4.203 19.806 2.802 27.962z" fill="#F0C13B"/><path d="M84.793 42.325c7.284 12.862 8.171 35.185 7.704 44.738-7.704 10.155-25.09 14.976-36.857 16.095-11.766 1.118-25.74-4.62-38.084-13.998v-6.99c-11.206-13.422-6.07-28.894-2.1-34.952.56-11.184 7.236-16.777 10.505-18.175 2.801-13.98 4.903-16.777 8.404-18.175 2.802-1.118 8.172 6.525 10.506 10.486l16.11 3.495c4.668-4.66 15.408-13.282 21.01-10.486 5.604 2.797 4.203 19.806 2.802 27.962z" fill="url(#paint0_linear_7035_389)"/><path fill-rule="evenodd" clip-rule="evenodd" d="M25.809 65.197c-2.261-1.023-4.749-4.776-4.749-7.847 0-3.98 2.035-6.482 6.332-10.122-.792-.34-1.47-1.023-2.035-1.592-.566-.682-.792-1.478-.453-2.16.792-1.593 2.035-3.526 3.505-3.754 2.262-.34 3.957 1.479 4.636 2.502.565.91.791 2.844-.566 3.64-3.844 2.388-7.688 5.8-8.592 7.96.339-.113 1.13-.227 1.583-.227 2.487-.227 5.314 0 7.349.682 2.6.797 4.522 2.957 2.826 5.232-1.809 2.502-4.635 4.55-6.784 5.345.453 4.436 3.732 6.938 8.14 6.824 1.923 0 4.071-.455 5.88-1.251 1.357-.569 2.827-1.592 3.392-2.957.226-.569.565-1.024 1.13-.569.679.569 1.018 1.593.792 2.389-.565 1.82-2.6 2.843-4.296 3.525-2.148.91-4.636 1.365-6.897 1.479-3.957 0-7.914-1.479-9.837-5.232-1.13 1.137-2.487 1.706-4.07 1.934-1.582.227-3.618 0-4.635-1.365-1.018-1.365-.792-5.573.339-6.824.565-.569 1.244-.227 1.018.569-.34 1.25-.34 3.298.339 4.435.452.796 1.696.683 2.487.569 2.035 0 2.94-1.365 3.166-3.185zm-1.244 9.781c-.113-.569-.113-1.251-.791-1.251-.679-.114-1.018.91-1.13 1.478-.227 1.593.904 3.299 2.147 4.208 2.488 1.82 6.106 1.82 9.045 1.024.679-.227 2.6-.682 2.488-1.478-.113-.797-2.149-.342-2.714-.342-2.148.228-5.314.114-7.123-1.137-1.017-.682-1.696-1.592-1.922-2.502zM84.601 63.15c-1.809-11.827-13.68-18.082-21.369-11.827-.791.682-.113.796.34.568 8.592-3.525 17.524 3.185 20.35 11.373.227.569.679.341.679-.114zM24.565 87.147c-14.359-9.553-15.263-30.934-3.73-43.217.79-.796.451-1.25-.453-.796-.905.455-2.261 1.365-2.94 1.934.905-5.46 3.731-10.35 7.915-13.307.113.569-.227 1.251-.453 1.706-.339.683.113 1.024.792.455 1.583-1.706 3.505-5.231 3.957-8.53 1.13-7.392 2.148-12.055 4.522-12.85 2.714-.91 5.54 2.046 8.706 9.098a27.091 27.091 0 00-4.861 1.706c-1.357.682-1.131 1.25.339 1.023 7.8-.91 15.037-.114 20.35 1.365.905.227 1.357.91.68 2.957-.34.91 0 1.364.79.568.679-.682 1.47-1.364 2.036-2.047 7.575-8.302 14.02-12.51 19.107-11.031 4.862 1.478 4.749 12.396.678 31.161-.339 1.479.114 3.412 1.357 1.137.453-.796.905-1.82 1.244-2.843 6.784 20.244 8.706 30.82 5.992 40.146-.226.91-.904 2.047-.452 2.388.34.228 1.018-.113 1.809-1.25 2.713-3.754 3.392-8.53 3.279-13.99-.226-9.439-4.636-22.176-8.028-31.957 3.505-15.58 1.81-25.93-4.07-28.318-5.992-2.502-13.002.796-21.708 9.667-5.087-1.251-9.723-2.047-14.698-1.706-3.618-8.302-7.349-13.647-12.889-12.283-4.861 1.251-5.879 5.46-7.123 11.373-1.243 5.8-.678 6.596-2.713 7.961-5.992 4.094-9.95 10.236-10.967 20.13-5.201 9.44-5.314 25.589 3.392 34.915.565 1.705.678 3.866.565 5.458 0 1.024.113 1.934.905 2.048.904.113 1.13-.683 1.243-1.934.113-1.137.226-2.047.226-2.957 1.244.91 2.6 1.706 4.184 2.389 2.26 1.25 2.374.34 1.017-.57zm29.17-42.876c-3.731.228-5.54 2.844-7.688 4.663-.678.569-.678 1.365 0 1.934 2.035 1.706 4.635 2.388 7.236 2.047 2.487-.341 4.748-1.479 6.218-3.412.226-.227.226-.569.113-.91-.904-2.616-3.278-4.322-5.879-4.322zm-1.017 1.479c-1.131.114-2.262 1.023-3.392 2.16-1.244 1.252-2.262 2.275-.34 3.071 1.583.683 3.392.683 4.636.114-1.47-.227-2.148-1.82-2.148-2.616 0-.91 0-.454.113-.682.34.114.791 0 1.244-.114.904-.34 1.356-1.023 1.243-1.478-.226-.455-.904-.455-1.356-.455zm13.115 40.146c-7.123 7.733-18.769 10.008-28.831 6.255-1.018-.341-1.018-1.024.226-.91 9.836 1.251 19.56-.91 27.926-6.255 1.131-.569 1.696-.114.679.91zM76.12 69.974c2.262-2.73 3.505-5.573 3.166-8.53-.113-.682.452-1.137.678-.34 1.244 3.639.34 7.733-1.696 10.121-3.957 4.777-6.331 8.87-7.349 12.51-.339 1.137-1.017 1.024-.904-.227.452-3.98 2.6-9.326 6.105-13.534zM45.821 29.6c-4.636 3.185-7.01 9.326-6.67 14.558 0 .568.451.568.564 0 1.357-4.322 3.844-9.895 6.558-13.989.565-.796.452-1.137-.452-.569zm33.805-6.255c-5.766 2.503-6.105 10.577-2.148 15.581.452.569 1.13 1.592.678 2.161-.565.569-1.243-.114-1.809-.569a21.597 21.597 0 00-4.635-3.298c-1.696-.796-3.392-1.478-5.2-1.82-.114 0-.34-.113-.453-.227-.566-.341-.792-1.25-.566-1.933 1.244-2.616 3.392-5.118 5.767-7.279 2.487-2.16 5.087-3.525 7.8-4.549.68-.227 1.584-.341 1.81.341.226.683-.565 1.365-1.244 1.593zm-50.878 22.86c-1.017-.796-1.356-2.047-1.13-3.298.339.227.791.227 1.357-.114.678-.341 1.017-.91.904-1.251-.226-.341-.791-.455-1.47-.114-2.6 1.251-2.6 4.436.34 4.777zm-5.314 9.667c-.678.568-.904 1.592-.452 2.615.226.683.905.683 1.13-.227.453-2.047 3.506-1.933 5.089-2.047 1.13-.114 1.13-.682 0-.91-2.262-.341-4.862-.114-5.767.569z" fill="#241E35"/><path d="M2.18 53c0 28.066 22.753 50.819 50.82 50.819s50.82-22.753 50.82-50.82S81.067 2.18 53 2.18 2.18 24.932 2.18 53z" stroke="url(#paint1_linear_7035_389)" stroke-width="3.96"/><defs><linearGradient id="paint0_linear_7035_389" x1="66.942" y1="15.297" x2="28.433" y2="97.638" gradientUnits="userSpaceOnUse"><stop stop-color="#FFD56A"/><stop offset="1" stop-color="#F0C13B"/></linearGradient><linearGradient id="paint1_linear_7035_389" x1="72.693" y1="5.379" x2="32.248" y2="103.166" gradientUnits="userSpaceOnUse"><stop stop-color="#FFD56A"/><stop offset="1" stop-color="#F0C13B"/></linearGradient></defs></svg>