<svg width="60" height="60" viewBox="0 0 60 60" fill="none" xmlns="http://www.w3.org/2000/svg">
  <path d="M4.20426 29.6724C4.20426 43.7431 15.7533 55.1496 29.9999 55.1496C44.2464 55.1496 55.7954 43.7431 55.7954 29.6724C55.7954 15.6018 44.2464 4.19531 29.9999 4.19531C15.7533 4.19531 4.20426 15.6018 4.20426 29.6724Z" fill="#241E35"/>
  <path d="M45.8964 24.6625C49.5384 31.0936 49.982 42.2548 49.7485 47.0315C45.8964 52.1089 37.2031 54.5197 31.3199 55.0789C25.4367 55.6381 18.4499 52.7689 12.278 48.0801V44.5849C6.67488 37.8742 9.24295 30.1382 11.2274 27.1091C11.5075 21.5168 14.846 18.7207 16.4803 18.0216C17.881 11.0313 18.9316 9.63322 20.6826 8.93419C22.0834 8.37496 24.7682 12.1963 25.9355 14.1769L33.9899 15.9245C36.3245 13.5944 41.6942 9.2837 44.4957 10.6818C47.2972 12.0798 46.5968 20.5848 45.8964 24.6625Z" fill="#F0C13B"/>
  <path d="M45.8964 24.6625C49.5384 31.0936 49.982 42.2548 49.7485 47.0315C45.8964 52.1089 37.2031 54.5197 31.3199 55.0789C25.4367 55.6381 18.4499 52.7689 12.278 48.0801V44.5849C6.67488 37.8742 9.24295 30.1382 11.2274 27.1091C11.5075 21.5168 14.846 18.7207 16.4803 18.0216C17.881 11.0313 18.9316 9.63322 20.6826 8.93419C22.0834 8.37496 24.7682 12.1963 25.9355 14.1769L33.9899 15.9245C36.3245 13.5944 41.6942 9.2837 44.4957 10.6818C47.2972 12.0798 46.5968 20.5848 45.8964 24.6625Z" fill="url(#paint0_linear_3166_844)"/>
  <path fill-rule="evenodd" clip-rule="evenodd" d="M16.4042 36.0967C15.2735 35.585 14.0299 33.7085 14.0299 32.1731C14.0299 30.1829 15.0474 28.9319 17.1956 27.1122C16.7999 26.9416 16.4607 26.6005 16.178 26.3161C15.8954 25.975 15.7823 25.5769 15.9519 25.2357C16.3476 24.4396 16.9695 23.4729 17.7044 23.3592C18.835 23.1886 19.6829 24.0984 20.0221 24.6102C20.3048 25.0651 20.4179 26.0318 19.7395 26.4299C17.8174 27.624 15.8954 29.3299 15.4431 30.4103C15.6127 30.3535 16.0084 30.2966 16.2346 30.2966C17.4782 30.1829 18.8915 30.2966 19.9091 30.6378C21.2093 31.0359 22.1703 32.1163 21.3223 33.2535C20.4179 34.5046 19.0046 35.5281 17.9305 35.9262C18.1566 38.1439 19.796 39.3949 22.0007 39.338C22.9617 39.338 24.0358 39.1105 24.9403 38.7125C25.6187 38.4282 26.3536 37.9164 26.6363 37.234C26.7493 36.9497 26.9189 36.7222 27.2016 36.9497C27.5407 37.234 27.7103 37.7458 27.5973 38.1439C27.3146 39.0537 26.2971 39.5654 25.4491 39.9066C24.375 40.3615 23.1313 40.589 22.0007 40.6459C20.0221 40.6459 18.0436 39.9066 17.0825 38.0301C16.5172 38.5988 15.8389 38.8831 15.0474 38.9968C14.256 39.1105 13.2384 38.9968 12.7296 38.3144C12.2209 37.6321 12.3339 35.5281 12.8992 34.9026C13.1819 34.6183 13.5211 34.7889 13.408 35.1869C13.2384 35.8124 13.2384 36.836 13.5776 37.4046C13.8037 37.8027 14.4256 37.7458 14.8213 37.6889C15.8388 37.6889 16.2911 37.0066 16.4042 36.0967ZM15.7823 40.9871C15.7258 40.7027 15.7258 40.3615 15.3866 40.3615C15.0474 40.3047 14.8778 40.8165 14.8213 41.1008C14.7082 41.8969 15.2735 42.7498 15.8954 43.2047C17.1391 44.1146 18.9481 44.1146 20.4179 43.7165C20.757 43.6028 21.7181 43.3753 21.6615 42.9773C21.605 42.5792 20.5874 42.8067 20.3048 42.8067C19.2307 42.9204 17.6478 42.8636 16.7433 42.2381C16.2346 41.8969 15.8954 41.442 15.7823 40.9871ZM45.8002 35.0732C44.8957 29.1593 38.96 26.0318 35.1159 29.1593C34.7202 29.5005 35.0594 29.5574 35.2855 29.4437C39.5818 27.6809 44.0478 31.0359 45.4611 35.1301C45.5741 35.4144 45.8002 35.3006 45.8002 35.0732ZM15.7823 47.0715C8.60289 42.2949 8.15065 31.6045 13.9168 25.4632C14.3125 25.0651 14.1429 24.8377 13.6907 25.0651C13.2384 25.2926 12.5601 25.7475 12.2209 26.0318C12.6731 23.3023 14.0864 20.8572 16.178 19.3787C16.2346 19.6631 16.065 20.0042 15.9519 20.2317C15.7823 20.5729 16.0084 20.7435 16.3476 20.4591C17.1391 19.6062 18.1001 17.8434 18.3262 16.1943C18.8915 12.4982 19.4003 10.1668 20.5874 9.76872C21.9442 9.31381 23.3575 10.7923 24.9403 14.3178C24.0358 14.5453 23.2444 14.8296 22.5095 15.1708C21.8311 15.512 21.9442 15.7963 22.6791 15.6826C26.5797 15.2277 30.1977 15.6257 32.8547 16.3649C33.3069 16.4787 33.533 16.8199 33.1938 17.8434C33.0243 18.2983 33.1938 18.5258 33.5896 18.1277C33.9287 17.7865 34.3245 17.4454 34.6071 17.1042C38.3947 12.9531 41.617 10.8491 44.1608 11.5884C46.5917 12.3276 46.5351 17.7865 44.5 27.1691C44.3304 27.9083 44.5566 28.875 45.1784 27.7377C45.4045 27.3397 45.6306 26.8279 45.8002 26.3161C49.1921 36.4379 50.1531 41.7263 48.7964 46.3891C48.6833 46.844 48.3441 47.4127 48.5703 47.5833C48.7398 47.697 49.079 47.5264 49.4748 46.9578C50.8315 45.0813 51.1707 42.693 51.1141 39.9635C51.0011 35.2438 48.7964 28.875 47.1005 23.9847C48.8529 16.1943 48.0049 11.0197 45.0653 9.82558C42.0692 8.57457 38.5643 10.2236 34.2114 14.659C31.6675 14.0335 29.3497 13.6355 26.8624 13.8061C25.0534 9.65499 23.1879 6.98238 20.4179 7.66475C17.987 8.29025 17.4782 10.3942 16.8564 13.3511C16.2346 16.2512 16.5172 16.6493 15.4997 17.3316C12.5035 19.3787 10.5249 22.4494 10.0162 27.3966C7.41574 32.1163 7.35921 40.191 11.7121 44.8538C11.9947 45.7068 12.0513 46.7872 11.9947 47.5833C11.9947 48.095 12.0513 48.55 12.447 48.6068C12.8992 48.6637 13.0123 48.2656 13.0688 47.6401C13.1254 47.0715 13.1819 46.6166 13.1819 46.1617C13.8037 46.6166 14.4821 47.0146 15.2735 47.3558C16.4042 47.9813 16.4607 47.5264 15.7823 47.0715ZM30.3673 25.6338C28.5018 25.7475 27.5973 27.0554 26.5232 27.9652C26.184 28.2495 26.184 28.6476 26.5232 28.9319C27.5408 29.7848 28.841 30.126 30.1412 29.9554C31.3849 29.7848 32.5155 29.2162 33.2504 28.2495C33.3634 28.1358 33.3634 27.9652 33.3069 27.7946C32.8547 26.4867 31.6675 25.6338 30.3673 25.6338ZM29.8585 26.373C29.2932 26.4299 28.7279 26.8848 28.1626 27.4534C27.5408 28.0789 27.032 28.5907 27.993 28.9887C28.7844 29.3299 29.6889 29.3299 30.3108 29.0456C29.5759 28.9319 29.2367 28.1358 29.2367 27.7377C29.2367 27.2828 29.2367 27.5103 29.2932 27.3966C29.4628 27.4534 29.6889 27.3966 29.9151 27.3397C30.3673 27.1691 30.5934 26.8279 30.5369 26.6005C30.4238 26.373 30.0846 26.373 29.8585 26.373ZM36.4161 46.446C32.8547 50.3127 27.032 51.45 22.0007 49.5735C21.4919 49.4029 21.4919 49.0617 22.1138 49.1186C27.032 49.7441 31.8936 48.6637 36.0769 45.9911C36.6422 45.7068 36.9249 45.9342 36.4161 46.446ZM41.5604 38.485C42.691 37.1203 43.3129 35.6987 43.1433 34.2202C43.0868 33.879 43.3694 33.6516 43.4825 34.0496C44.1043 35.8693 43.6521 37.9164 42.6345 39.1105C40.6559 41.4988 39.4688 43.5459 38.96 45.3656C38.7904 45.9342 38.4512 45.8774 38.5078 45.2519C38.7339 43.2616 39.808 40.589 41.5604 38.485ZM26.4101 18.2983C24.0924 19.8905 22.9052 22.9612 23.0748 25.5769C23.0748 25.8612 23.3009 25.8612 23.3575 25.5769C24.0358 23.4161 25.2795 20.6297 26.6363 18.5826C26.9189 18.1846 26.8624 18.014 26.4101 18.2983ZM43.3129 15.1708C40.4298 16.4218 40.2602 20.4591 42.2388 22.9612C42.4649 23.2455 42.8041 23.7573 42.578 24.0416C42.2953 24.3259 41.9561 23.9847 41.6735 23.7573C40.9386 23.0749 40.2037 22.5631 39.3557 22.1082C38.5077 21.7102 37.6598 21.369 36.7553 21.1984C36.6988 21.1984 36.5857 21.1415 36.5292 21.0847C36.2465 20.9141 36.1335 20.4591 36.2465 20.118C36.8684 18.8101 37.9424 17.5591 39.1296 16.4787C40.3733 15.3983 41.6735 14.7159 43.0302 14.2041C43.3694 14.0904 43.8217 14.0335 43.9347 14.3747C44.0478 14.7159 43.6521 15.0571 43.3129 15.1708ZM17.874 26.6005C17.3652 26.2024 17.1956 25.5769 17.3087 24.9514C17.4782 25.0651 17.7044 25.0651 17.987 24.8945C18.3262 24.7239 18.4958 24.4396 18.4393 24.269C18.3262 24.0984 18.0436 24.0416 17.7044 24.2122C16.4042 24.8377 16.4042 26.4299 17.874 26.6005ZM15.217 31.4339C14.8778 31.7182 14.7648 32.23 14.9909 32.7418C15.1039 33.083 15.4431 33.083 15.5562 32.628C15.7823 31.6045 17.3087 31.6614 18.1001 31.6045C18.6654 31.5476 18.6654 31.2633 18.1001 31.1496C16.9695 30.979 15.6693 31.0927 15.217 31.4339Z" fill="#241E35"/>
  <path d="M4.58992 29.9976C4.58992 44.0312 15.9664 55.4076 29.9999 55.4076C44.0335 55.4076 55.4099 44.0312 55.4099 29.9976C55.4099 15.9641 44.0335 4.58766 29.9999 4.58766C15.9664 4.58766 4.58992 15.9641 4.58992 29.9976Z" stroke="url(#paint1_linear_3166_844)" stroke-width="1.98"/>
  <defs>
    <linearGradient id="paint0_linear_3166_844" x1="36.9709" y1="11.1485" x2="17.7164" y2="52.3193" gradientUnits="userSpaceOnUse">
      <stop stop-color="#FFD56A"/>
      <stop offset="1" stop-color="#F0C13B"/>
    </linearGradient>
    <linearGradient id="paint1_linear_3166_844" x1="39.8464" y1="6.1876" x2="19.6237" y2="55.0811" gradientUnits="userSpaceOnUse">
      <stop stop-color="#FFD56A"/>
      <stop offset="1" stop-color="#F0C13B"/>
    </linearGradient>
  </defs>
</svg>