<svg width="88" height="56" fill="none" xmlns="http://www.w3.org/2000/svg"><path d="M.525 2.502c.275 0 .725.125 1 .25.45.25.475.575.475 5.375s-.025 5.125-.475 5.375c-.275.125-.725.25-1 .25-.425 0-.525.15-.525.875v.875h6.5v-.875c0-.775-.075-.875-.625-.875-.35 0-.85-.225-1.125-.5-.45-.45-.5-.825-.5-4.675 0-2.3.1-4.075.2-3.95.125.15 1.05 2.65 2.05 5.575l1.85 5.325.85-.075.85-.075 2.05-5.45 2.025-5.45.075 4.325c.075 4.75 0 4.95-1.5 4.95-.625 0-.7.075-.7.875v.875h7.75v-.875c0-.825-.05-.875-.825-.875-.45 0-.95-.125-1.125-.3-.225-.225-.3-1.725-.3-5.225 0-5.35 0-5.325 1.45-5.625.675-.15.8-.275.8-.9V.977l-3.4.075-3.4.075-1.5 4.125c-.825 2.275-1.575 4.2-1.675 4.3-.075.1-.825-1.775-1.65-4.175l-1.5-4.375H0v.75c0 .6.1.75.525.75z" fill="#fff"/><path fill-rule="evenodd" clip-rule="evenodd" d="M53.475 2.5c.425 0 .775.15.875.4.075.225.15 3.15.15 6.5v6.1h.725c.45 0 .85-.2 1.075-.55l.35-.525.825.6c1.15.85 3.775.875 4.975.025 1.375-1 1.925-2.35 1.925-4.8 0-2.7-.65-4.075-2.375-4.95-1.425-.7-2.15-.7-3.6.075l-1.15.6V1h-4.5v.75c0 .65.075.75.725.75zm7.675 9.875c-.775 1.825-2.55 2.025-3.5.4-.9-1.525-.45-5.4.65-5.875.175-.05.725-.1 1.2-.075.675.05.975.225 1.425.9.675 1 .8 3.275.225 4.65zM21 10.3c0 2.7 1.2 4.45 3.475 5.126 2.55.725 4.8-.05 5.75-2.025.725-1.475.675-1.65-.475-1.65-.7 0-1 .1-1 .35 0 .2-.25.675-.575 1.025-.725.85-2.125.95-3.1.225-.7-.525-1.45-2.2-1.175-2.625.075-.125 1.65-.225 3.5-.225 3.8 0 3.625.125 3.075-2.175-.375-1.45-1.75-2.925-3.1-3.3-1.175-.325-1.7-.325-2.875.025-2.1.6-3.5 2.7-3.5 5.25zm6.75-2.05v.776l-1.8-.075-1.825-.075.05-.75C24.275 6.676 26.2 5.95 27.25 7c.275.275.5.825.5 1.25z" fill="#fff"/><path d="M37.7 5.929l-.7.675v-1.6h-4.75v.75c0 .6.1.75.525.75.275 0 .725.125 1 .25.425.25.475.55.475 3.475 0 3.475-.025 3.525-1.4 3.525-.525 0-.6.125-.6.875v.875h6.25v-.875c0-.675-.1-.875-.45-.875-.85 0-1.05-.525-1.05-2.9 0-1.95.075-2.4.575-3.125.5-.75.7-.85 1.675-.85 1.475 0 1.75.525 1.75 3.575 0 2.625-.225 3.3-1.15 3.3-.55 0-.625.1-.55.8l.075.825h5.5l.075-.825c.075-.65 0-.8-.375-.8-.875 0-1.075-.525-1.075-2.75 0-2.45.45-3.675 1.575-4.2 1-.5 1.825-.2 2.15.725.375 1.1.35 5.55-.025 5.925-.175.175-.5.3-.75.3-.35 0-.45.2-.45.875v.875h6v-.875c0-.825-.05-.875-.875-.875-1.075 0-1.1-.075-1.175-4.3-.075-2.95-.125-3.2-.675-3.8-1.15-1.225-3.4-1.1-5.025.275l-.775.65-.375-.55c-.8-1.125-2.625-1.575-4.1-1-.35.15-.925.55-1.3.9z" fill="#fff"/><path fill-rule="evenodd" clip-rule="evenodd" d="M66.55 9.878c-.15 2.275.2 3.35 1.45 4.475 2.125 1.9 5.325 1.85 7.125-.15.475-.525.875-1.1.875-1.3 0-.2.075-.525.15-.75.125-.325-.025-.4-.825-.4-.85 0-1 .1-1.25.75-.175.5-.6.875-1.15 1.125-1.4.575-2.675 0-3.325-1.55-.675-1.6-.725-1.575 3.175-1.575h3.55l-.15-1.125c-.475-3.35-2.925-5.15-6.075-4.375-2.125.5-3.375 2.225-3.55 4.875zm6.7-1.625v.75h-1.875c-1.8 0-1.875-.025-1.875-.6 0-.325.225-.875.525-1.25.65-.825 1.975-.9 2.725-.15.275.275.5.825.5 1.25z" fill="#fff"/><path d="M83 5.879c-.35.425-.375.4-.5-.15-.15-.575-.25-.6-2.45-.675l-2.3-.075v.775c0 .6.1.75.525.75.275 0 .725.125 1 .25.425.25.475.55.475 3.475 0 3.475-.025 3.525-1.4 3.525-.525 0-.6.125-.6.875v.875h6.75v-.875c0-.8-.075-.875-.7-.875-1.125 0-1.3-.4-1.3-2.775 0-3.2.775-4.75 2.35-4.7.425 0 .625.075.45.15-.625.25-.85 1.325-.425 2 .575.85 2.075.725 2.6-.2.55-1 .175-2.375-.8-2.975-.925-.575-1.5-.6-2.55-.15-.425.175-.925.525-1.125.775zM62.825 33.25c-.575 2.225-.575 6.8.025 9 1.275 4.625 4.4 8.525 8.65 10.725C74.325 54.45 76.7 55 80.225 55c3.275-.025 4.525-.225 6.425-1.175l1.35-.65v-9.15l-2.175 1.05c-2 .95-2.375 1.05-4.575 1.125-1.975.075-2.625 0-3.8-.45-2-.75-3.925-2.55-4.85-4.55-.65-1.4-.725-1.85-.725-3.95 0-2.025.1-2.575.675-3.8 1.325-2.875 3.725-4.7 6.85-5.225 2.2-.375 3.8-.05 6.575 1.275l2.025.975-.05-4.525-.075-4.55L86 20.8c-1.4-.45-2.6-.6-4.75-.675-1.575-.05-3.2-.025-3.625.025-7.275 1.175-13 6.225-14.8 13.1zM.25 55h9.5V41.75h9V34h-9v-5.5h9.75v-7.75H.25V55z" fill="#fff"/><path fill-rule="evenodd" clip-rule="evenodd" d="M21 55.052l7.075-.125c5.75-.1 7.475-.225 9.3-.625 6.875-1.5 11.125-5.275 12.775-11.3.625-2.25.625-7.975.025-10.25-1.5-5.65-5.575-9.75-11.3-11.425-1.25-.35-2.85-.45-9.675-.525l-8.2-.075v34.325zm20.25-17.425c0 3.925-1.675 6.85-4.7 8.2-1.6.725-3.55 1.175-5.075 1.175H30.5V28.427l2.2.125c1.7.1 2.575.3 3.775.825 3.1 1.4 4.775 4.3 4.775 8.25z" fill="#fff"/><path d="M51.75 55h9.5V20.75h-9.5V55z" fill="#fff"/></svg>