<svg width="142" height="88" fill="none" xmlns="http://www.w3.org/2000/svg"><path d="M1.44 3.203c.44 0 1.16.2 1.6.4.72.4.76.92.76 8.6s-.04 8.2-.76 8.6c-.44.2-1.16.4-1.6.4-.68 0-.84.24-.84 1.4v1.4H11v-1.4c0-1.24-.12-1.4-1-1.4-.56 0-1.36-.36-1.8-.8-.72-.72-.8-1.32-.8-7.48 0-3.68.16-6.52.32-6.32.2.24 1.68 4.24 3.28 8.92l2.96 8.52 1.36-.12 1.36-.12 3.28-8.72 3.24-8.72.12 6.92c.12 7.6 0 7.92-2.4 7.92-1 0-1.12.12-1.12 1.4v1.4h12.4v-1.4c0-1.32-.08-1.4-1.32-1.4-.72 0-1.52-.2-1.8-.48-.36-.36-.48-2.76-.48-8.36 0-8.56 0-8.52 2.32-9 1.08-.24 1.28-.44 1.28-1.44V.763l-5.44.12-5.44.12-2.4 6.6c-1.32 3.64-2.52 6.72-2.68 6.88-.12.16-1.32-2.84-2.64-6.68l-2.4-7H.6v1.2c0 .96.16 1.2.84 1.2z" fill="#fff"/><path fill-rule="evenodd" clip-rule="evenodd" d="M86.16 3.2c.68 0 1.24.24 1.4.64.12.36.24 5.04.24 10.4V24h1.16c.72 0 1.36-.32 1.72-.88l.56-.84 1.32.96c1.84 1.36 6.04 1.4 7.96.04 2.2-1.6 3.08-3.76 3.08-7.68 0-4.32-1.04-6.52-3.8-7.92-2.28-1.12-3.44-1.12-5.76.12l-1.84.96V.8H85V2c0 1.04.12 1.2 1.16 1.2zM98.44 19c-1.24 2.92-4.08 3.24-5.6.64-1.44-2.44-.72-8.64 1.04-9.4.28-.08 1.16-.16 1.92-.12 1.08.08 1.56.36 2.28 1.44 1.08 1.6 1.28 5.24.36 7.44zM34.2 15.68c0 4.32 1.92 7.12 5.56 8.2 4.08 1.16 7.68-.08 9.2-3.24 1.16-2.36 1.08-2.64-.76-2.64-1.12 0-1.6.16-1.6.56 0 .32-.4 1.08-.92 1.64-1.16 1.36-3.4 1.52-4.96.36-1.12-.84-2.32-3.52-1.88-4.2.12-.2 2.64-.36 5.6-.36 6.08 0 5.8.2 4.92-3.48-.6-2.32-2.8-4.68-4.96-5.28-1.88-.52-2.72-.52-4.6.04-3.36.96-5.6 4.32-5.6 8.4zM45 12.4v1.24l-2.88-.12-2.92-.12.08-1.2c.16-2.32 3.24-3.48 4.92-1.8.44.44.8 1.32.8 2z" fill="#fff"/><path d="M60.92 8.68L59.8 9.76V7.2h-7.6v1.2c0 .96.16 1.2.84 1.2.44 0 1.16.2 1.6.4.68.4.76.88.76 5.56 0 5.56-.04 5.64-2.24 5.64-.84 0-.96.2-.96 1.4V24h10v-1.4c0-1.08-.16-1.4-.72-1.4-1.36 0-1.68-.84-1.68-4.64 0-3.12.12-3.84.92-5 .8-1.2 1.12-1.36 2.68-1.36 2.36 0 2.8.84 2.8 5.72 0 4.2-.36 5.28-1.84 5.28-.88 0-1 .16-.88 1.28l.12 1.32h8.8l.12-1.32c.12-1.04 0-1.28-.6-1.28-1.4 0-1.72-.84-1.72-4.4 0-3.92.72-5.88 2.52-6.72 1.6-.8 2.92-.32 3.44 1.16.6 1.76.56 8.88-.04 9.48-.28.28-.8.48-1.2.48-.56 0-.72.32-.72 1.4V24h9.6v-1.4c0-1.32-.08-1.4-1.4-1.4-1.72 0-1.76-.12-1.88-6.88-.12-4.72-.2-5.12-1.08-6.08-1.84-1.96-5.44-1.76-8.04.44l-1.24 1.04-.6-.88c-1.28-1.8-4.2-2.52-6.56-1.6-.56.24-1.48.88-2.08 1.44z" fill="#fff"/><path fill-rule="evenodd" clip-rule="evenodd" d="M107.08 15c-.24 3.64.32 5.36 2.32 7.16 3.4 3.04 8.52 2.96 11.4-.24.76-.84 1.4-1.76 1.4-2.08 0-.32.12-.84.24-1.2.2-.52-.04-.64-1.32-.64-1.36 0-1.6.16-2 1.2-.28.8-.96 1.4-1.84 1.8-2.24.92-4.28 0-5.32-2.48-1.08-2.56-1.16-2.52 5.08-2.52h5.68l-.24-1.8c-.76-5.36-4.68-8.24-9.72-7-3.4.8-5.4 3.56-5.68 7.8zm10.72-2.6v1.2h-3c-2.88 0-3-.04-3-.96 0-.52.36-1.4.84-2 1.04-1.32 3.16-1.44 4.36-.24.44.44.8 1.32.8 2z" fill="#fff"/><path d="M133.4 8.6c-.56.68-.6.64-.8-.24-.24-.92-.4-.96-3.92-1.08L125 7.16V8.4c0 .96.16 1.2.84 1.2.44 0 1.16.2 1.6.4.68.4.76.88.76 5.56 0 5.56-.04 5.64-2.24 5.64-.84 0-.96.2-.96 1.4V24h10.8v-1.4c0-1.28-.12-1.4-1.12-1.4-1.8 0-2.08-.64-2.08-4.44 0-5.12 1.24-7.6 3.76-7.52.68 0 1 .12.72.24-1 .4-1.36 2.12-.68 3.2.92 1.36 3.32 1.16 4.16-.32.88-1.6.28-3.8-1.28-4.76-1.48-.92-2.4-.96-4.08-.24-.68.28-1.48.84-1.8 1.24zM101.12 52.403c-.92 3.56-.92 10.88.04 14.4 2.04 7.4 7.04 13.64 13.84 17.16 4.52 2.36 8.32 3.24 13.96 3.24 5.24-.04 7.24-.36 10.28-1.88l2.16-1.04v-14.64l-3.48 1.68c-3.2 1.52-3.8 1.68-7.32 1.8-3.16.12-4.2 0-6.08-.72-3.2-1.2-6.28-4.08-7.76-7.28-1.04-2.24-1.16-2.96-1.16-6.32 0-3.24.16-4.12 1.08-6.08 2.12-4.6 5.96-7.52 10.96-8.36 3.52-.6 6.08-.08 10.52 2.04l3.24 1.56-.08-7.24-.12-7.28-3-.96c-2.24-.72-4.16-.96-7.6-1.08-2.52-.08-5.12-.04-5.8.04-11.64 1.88-20.8 9.96-23.68 20.96zM1 87.203h15.2v-21.2h14.4v-12.4H16.2v-8.8h15.6v-12.4H1v54.8z" fill="#fff"/><path fill-rule="evenodd" clip-rule="evenodd" d="M34.2 87.283l11.32-.2c9.2-.16 11.96-.36 14.88-1 11-2.4 17.8-8.44 20.44-18.08 1-3.6 1-12.76.04-16.4-2.4-9.04-8.92-15.6-18.08-18.28-2-.56-4.56-.72-15.48-.84l-13.12-.12v54.92zm32.4-27.88c0 6.28-2.68 10.96-7.52 13.12-2.56 1.16-5.68 1.88-8.12 1.88H49.4v-29.72l3.52.2c2.72.16 4.12.48 6.04 1.32 4.96 2.24 7.64 6.88 7.64 13.2z" fill="#fff"/><path d="M83.4 87.203h15.2v-54.8H83.4v54.8z" fill="#fff"/></svg>