<svg width="100" height="100" fill="none" xmlns="http://www.w3.org/2000/svg"><mask id="a" style="mask-type:alpha" maskUnits="userSpaceOnUse" x="0" y="0" width="100" height="100"><path fill="#fff" d="M0 0h100v100H0z"/></mask><g mask="url(#a)"><path d="M9.001 20.664c.57 21.419 9.126 62.58 39.9 74.138a3.149 3.149 0 002.198 0c30.774-11.558 39.33-52.72 39.9-74.138.036-1.37-.864-2.582-2.195-3.021L51.051 5.169a3.354 3.354 0 00-2.102 0L11.196 17.643c-1.33.44-2.231 1.65-2.195 3.02z" fill="#fff"/><path d="M36 51.583l11.021 9.741a1 1 0 001.425-.102L69 37" stroke="#241E35" stroke-width="10" stroke-linecap="round"/></g></svg>